<?xml version="1.0" encoding="UTF-8" standalone="no"?>
<!-- This is a Stata 16.1 generated SVG file (http://www.stata.com) -->

<svg version="1.1" width="5.50in" height="4.00in" viewBox="0 0 3960 2880" xmlns="http://www.w3.org/2000/svg" xmlns:xlink="http://www.w3.org/1999/xlink">
	<desc>Stata Graph - Graph</desc>
	<rect x="0" y="0" width="3960" height="2880" style="fill:#EAF2F3;stroke:none"/>
	<rect x="0.00" y="0.00" width="3959.88" height="2880.00" style="fill:#FFFFFF"/>
	<rect x="2.88" y="2.88" width="3954.12" height="2874.24" style="fill:none;stroke:#FFFFFF;stroke-width:5.76"/>
	<rect x="63.36" y="63.36" width="1916.64" height="2753.28" style="fill:#FFFFFF"/>
	<rect x="65.52" y="65.52" width="1912.32" height="2748.96" style="fill:none;stroke:#FFFFFF;stroke-width:4.32"/>
	<rect x="296.50" y="209.89" width="1607.88" height="2388.70" style="fill:#FFFFFF"/>
	<rect x="298.66" y="212.05" width="1603.56" height="2384.38" style="fill:none;stroke:#FFFFFF;stroke-width:4.32"/>
	<line x1="296.50" y1="2598.58" x2="1904.39" y2="2598.58" style="stroke:#EAF2F3;stroke-width:6.48"/>
	<line x1="296.50" y1="1818.19" x2="1904.39" y2="1818.19" style="stroke:#EAF2F3;stroke-width:6.48"/>
	<line x1="296.50" y1="1037.80" x2="1904.39" y2="1037.80" style="stroke:#EAF2F3;stroke-width:6.48"/>
	<rect x="361.72" y="2562.20" width="35.64" height="36.38" style="fill:#CAC27E"/>
	<rect x="364.96" y="2565.44" width="29.16" height="29.90" style="fill:none;stroke:#D7D29E;stroke-width:6.48"/>
	<rect x="397.36" y="2563.81" width="35.64" height="34.77" style="fill:#CAC27E"/>
	<rect x="400.60" y="2567.05" width="29.16" height="28.30" style="fill:none;stroke:#D7D29E;stroke-width:6.48"/>
	<rect x="433.00" y="2561.21" width="35.52" height="37.37" style="fill:#CAC27E"/>
	<rect x="436.24" y="2564.45" width="29.04" height="30.89" style="fill:none;stroke:#D7D29E;stroke-width:6.48"/>
	<rect x="468.52" y="2563.07" width="35.64" height="35.52" style="fill:#CAC27E"/>
	<rect x="471.76" y="2566.31" width="29.16" height="29.04" style="fill:none;stroke:#D7D29E;stroke-width:6.48"/>
	<rect x="504.16" y="2562.70" width="35.64" height="35.89" style="fill:#CAC27E"/>
	<rect x="507.40" y="2565.93" width="29.16" height="29.41" style="fill:none;stroke:#D7D29E;stroke-width:6.48"/>
	<rect x="539.80" y="2562.32" width="35.52" height="36.26" style="fill:#CAC27E"/>
	<rect x="543.04" y="2565.56" width="29.04" height="29.78" style="fill:none;stroke:#D7D29E;stroke-width:6.48"/>
	<rect x="575.31" y="2562.20" width="35.64" height="36.38" style="fill:#CAC27E"/>
	<rect x="578.55" y="2565.44" width="29.16" height="29.90" style="fill:none;stroke:#D7D29E;stroke-width:6.48"/>
	<rect x="610.95" y="2564.55" width="35.64" height="34.03" style="fill:#CAC27E"/>
	<rect x="614.19" y="2567.79" width="29.16" height="27.55" style="fill:none;stroke:#D7D29E;stroke-width:6.48"/>
	<rect x="646.59" y="2562.70" width="35.52" height="35.89" style="fill:#CAC27E"/>
	<rect x="649.83" y="2565.93" width="29.04" height="29.41" style="fill:none;stroke:#D7D29E;stroke-width:6.48"/>
	<rect x="682.11" y="2563.56" width="35.64" height="35.02" style="fill:#CAC27E"/>
	<rect x="685.35" y="2566.80" width="29.16" height="28.54" style="fill:none;stroke:#D7D29E;stroke-width:6.48"/>
	<rect x="717.75" y="2562.82" width="35.52" height="35.76" style="fill:#CAC27E"/>
	<rect x="720.99" y="2566.06" width="29.04" height="29.29" style="fill:none;stroke:#D7D29E;stroke-width:6.48"/>
	<rect x="753.27" y="2562.20" width="35.64" height="36.38" style="fill:#CAC27E"/>
	<rect x="756.51" y="2565.44" width="29.16" height="29.90" style="fill:none;stroke:#D7D29E;stroke-width:6.48"/>
	<rect x="788.91" y="2561.46" width="35.64" height="37.13" style="fill:#CAC27E"/>
	<rect x="792.15" y="2564.70" width="29.16" height="30.65" style="fill:none;stroke:#D7D29E;stroke-width:6.48"/>
	<rect x="824.55" y="2571.11" width="35.52" height="27.47" style="fill:#CAC27E"/>
	<rect x="827.79" y="2574.35" width="29.04" height="20.99" style="fill:none;stroke:#D7D29E;stroke-width:6.48"/>
	<rect x="860.06" y="2562.94" width="35.64" height="35.64" style="fill:#CAC27E"/>
	<rect x="863.30" y="2566.18" width="29.16" height="29.16" style="fill:none;stroke:#D7D29E;stroke-width:6.48"/>
	<rect x="895.70" y="2560.59" width="35.64" height="37.99" style="fill:#CAC27E"/>
	<rect x="898.94" y="2563.83" width="29.16" height="31.51" style="fill:none;stroke:#D7D29E;stroke-width:6.48"/>
	<rect x="931.34" y="2565.79" width="35.52" height="32.79" style="fill:#CAC27E"/>
	<rect x="934.58" y="2569.03" width="29.04" height="26.31" style="fill:none;stroke:#D7D29E;stroke-width:6.48"/>
	<rect x="966.86" y="2564.18" width="35.64" height="34.40" style="fill:#CAC27E"/>
	<rect x="970.10" y="2567.42" width="29.16" height="27.92" style="fill:none;stroke:#D7D29E;stroke-width:6.48"/>
	<rect x="1002.50" y="2562.20" width="35.64" height="36.38" style="fill:#CAC27E"/>
	<rect x="1005.74" y="2565.44" width="29.16" height="29.90" style="fill:none;stroke:#D7D29E;stroke-width:6.48"/>
	<rect x="1038.14" y="2565.05" width="35.52" height="33.54" style="fill:#CAC27E"/>
	<rect x="1041.38" y="2568.29" width="29.04" height="27.06" style="fill:none;stroke:#D7D29E;stroke-width:6.48"/>
	<rect x="1073.65" y="2563.81" width="35.64" height="34.77" style="fill:#CAC27E"/>
	<rect x="1076.89" y="2567.05" width="29.16" height="28.30" style="fill:none;stroke:#D7D29E;stroke-width:6.48"/>
	<rect x="1109.30" y="2561.21" width="35.64" height="37.37" style="fill:#CAC27E"/>
	<rect x="1112.53" y="2564.45" width="29.16" height="30.89" style="fill:none;stroke:#D7D29E;stroke-width:6.48"/>
	<rect x="1144.93" y="2561.58" width="35.52" height="37.00" style="fill:#CAC27E"/>
	<rect x="1148.17" y="2564.82" width="29.04" height="30.52" style="fill:none;stroke:#D7D29E;stroke-width:6.48"/>
	<rect x="1180.45" y="2559.85" width="35.64" height="38.73" style="fill:#CAC27E"/>
	<rect x="1183.69" y="2563.09" width="29.16" height="32.26" style="fill:none;stroke:#D7D29E;stroke-width:6.48"/>
	<rect x="1216.09" y="2562.45" width="35.64" height="36.14" style="fill:#CAC27E"/>
	<rect x="1219.33" y="2565.69" width="29.16" height="29.66" style="fill:none;stroke:#D7D29E;stroke-width:6.48"/>
	<rect x="1251.73" y="2561.95" width="35.52" height="36.63" style="fill:#CAC27E"/>
	<rect x="1254.97" y="2565.19" width="29.04" height="30.15" style="fill:none;stroke:#D7D29E;stroke-width:6.48"/>
	<rect x="1287.25" y="2563.07" width="35.64" height="35.52" style="fill:#CAC27E"/>
	<rect x="1290.49" y="2566.31" width="29.16" height="29.04" style="fill:none;stroke:#D7D29E;stroke-width:6.48"/>
	<rect x="1322.89" y="2567.77" width="35.64" height="30.81" style="fill:#CAC27E"/>
	<rect x="1326.13" y="2571.01" width="29.16" height="24.33" style="fill:none;stroke:#D7D29E;stroke-width:6.48"/>
	<rect x="1358.53" y="2564.68" width="35.52" height="33.91" style="fill:#CAC27E"/>
	<rect x="1361.77" y="2567.92" width="29.04" height="27.43" style="fill:none;stroke:#D7D29E;stroke-width:6.48"/>
	<rect x="1394.04" y="2562.32" width="35.64" height="36.26" style="fill:#CAC27E"/>
	<rect x="1397.28" y="2565.56" width="29.16" height="29.78" style="fill:none;stroke:#D7D29E;stroke-width:6.48"/>
	<rect x="1429.68" y="2563.56" width="35.64" height="35.02" style="fill:#CAC27E"/>
	<rect x="1432.92" y="2566.80" width="29.16" height="28.54" style="fill:none;stroke:#D7D29E;stroke-width:6.48"/>
	<rect x="1465.20" y="2562.94" width="35.64" height="35.64" style="fill:#CAC27E"/>
	<rect x="1468.44" y="2566.18" width="29.16" height="29.16" style="fill:none;stroke:#D7D29E;stroke-width:6.48"/>
	<rect x="1500.84" y="2563.93" width="35.64" height="34.65" style="fill:#CAC27E"/>
	<rect x="1504.08" y="2567.17" width="29.16" height="28.17" style="fill:none;stroke:#D7D29E;stroke-width:6.48"/>
	<rect x="1536.48" y="2565.17" width="35.52" height="33.41" style="fill:#CAC27E"/>
	<rect x="1539.72" y="2568.41" width="29.04" height="26.93" style="fill:none;stroke:#D7D29E;stroke-width:6.48"/>
	<rect x="1572.00" y="2559.23" width="35.64" height="39.35" style="fill:#CAC27E"/>
	<rect x="1575.24" y="2562.47" width="29.16" height="32.87" style="fill:none;stroke:#D7D29E;stroke-width:6.48"/>
	<rect x="1607.64" y="2564.92" width="35.64" height="33.66" style="fill:#CAC27E"/>
	<rect x="1610.88" y="2568.16" width="29.16" height="27.18" style="fill:none;stroke:#D7D29E;stroke-width:6.48"/>
	<rect x="1643.28" y="2561.95" width="35.52" height="36.63" style="fill:#CAC27E"/>
	<rect x="1646.52" y="2565.19" width="29.04" height="30.15" style="fill:none;stroke:#D7D29E;stroke-width:6.48"/>
	<rect x="1678.79" y="2559.72" width="35.64" height="38.86" style="fill:#CAC27E"/>
	<rect x="1682.03" y="2562.96" width="29.16" height="32.38" style="fill:none;stroke:#D7D29E;stroke-width:6.48"/>
	<rect x="1714.43" y="2566.53" width="35.64" height="32.05" style="fill:#CAC27E"/>
	<rect x="1717.67" y="2569.77" width="29.16" height="25.57" style="fill:none;stroke:#D7D29E;stroke-width:6.48"/>
	<rect x="1750.07" y="2563.93" width="35.52" height="34.65" style="fill:#CAC27E"/>
	<rect x="1753.31" y="2567.17" width="29.04" height="28.17" style="fill:none;stroke:#D7D29E;stroke-width:6.48"/>
	<rect x="1785.59" y="2564.30" width="35.64" height="34.28" style="fill:#CAC27E"/>
	<rect x="1788.83" y="2567.54" width="29.16" height="27.80" style="fill:none;stroke:#D7D29E;stroke-width:6.48"/>
	<rect x="1821.23" y="2561.46" width="35.64" height="37.13" style="fill:#CAC27E"/>
	<rect x="1824.47" y="2564.70" width="29.16" height="30.65" style="fill:none;stroke:#D7D29E;stroke-width:6.48"/>
	<line x1="296.50" y1="2598.58" x2="296.50" y2="209.89" style="stroke:#000000;stroke-width:4.32"/>
	<line x1="296.50" y1="2598.58" x2="266.43" y2="2598.58" style="stroke:#000000;stroke-width:4.32"/>
	<text x="237.88" y="2598.58" style="font-family:'Helvetica';font-size:45.05px;fill:#000000" transform="rotate(-90 237.88,2598.58)" text-anchor="middle">0</text>
	<line x1="296.50" y1="1818.19" x2="266.43" y2="1818.19" style="stroke:#000000;stroke-width:4.32"/>
	<text x="237.88" y="1818.19" style="font-family:'Helvetica';font-size:45.05px;fill:#000000" transform="rotate(-90 237.88,1818.19)" text-anchor="middle">1.0e+04</text>
	<line x1="296.50" y1="1037.80" x2="266.43" y2="1037.80" style="stroke:#000000;stroke-width:4.32"/>
	<text x="237.88" y="1037.80" style="font-family:'Helvetica';font-size:45.05px;fill:#000000" transform="rotate(-90 237.88,1037.80)" text-anchor="middle">2.0e+04</text>
	<line x1="296.50" y1="257.41" x2="266.43" y2="257.41" style="stroke:#000000;stroke-width:4.32"/>
	<text x="237.88" y="257.41" style="font-family:'Helvetica';font-size:45.05px;fill:#000000" transform="rotate(-90 237.88,257.41)" text-anchor="middle">3.0e+04</text>
	<text x="185.41" y="1404.24" style="font-family:'Helvetica';font-size:45.05px;fill:#000000" transform="rotate(-90 185.41,1404.24)" text-anchor="middle">Number</text>
	<line x1="296.50" y1="2598.58" x2="1904.39" y2="2598.58" style="stroke:#000000;stroke-width:4.32"/>
	<line x1="441.17" y1="2598.58" x2="441.17" y2="2628.53" style="stroke:#000000;stroke-width:4.32"/>
	<text x="441.17" y="2664.41" style="font-family:'Helvetica';font-size:29.95px;fill:#000000" text-anchor="middle">01jan2021</text>
	<line x1="867.36" y1="2598.58" x2="867.36" y2="2628.53" style="stroke:#000000;stroke-width:4.32"/>
	<text x="867.36" y="2664.41" style="font-family:'Helvetica';font-size:29.95px;fill:#000000" text-anchor="middle">01mar2021</text>
	<line x1="1307.91" y1="2598.58" x2="1307.91" y2="2628.53" style="stroke:#000000;stroke-width:4.32"/>
	<text x="1307.91" y="2664.41" style="font-family:'Helvetica';font-size:29.95px;fill:#000000" text-anchor="middle">01may2021</text>
	<line x1="1748.46" y1="2598.58" x2="1748.46" y2="2628.53" style="stroke:#000000;stroke-width:4.32"/>
	<text x="1748.46" y="2664.41" style="font-family:'Helvetica';font-size:29.95px;fill:#000000" text-anchor="middle">01jul2021</text>
	<text x="1100.38" y="2712.47" style="font-family:'Helvetica';font-size:45.05px;fill:#000000" text-anchor="middle">Date of COVID-19 primary care code</text>
	<text x="1100.38" y="183.32" style="font-family:'Helvetica';font-size:45.05px;fill:#1E2D53" text-anchor="middle">N=19039</text>
	<rect x="1980.00" y="63.36" width="1916.52" height="2753.28" style="fill:#FFFFFF"/>
	<rect x="1982.16" y="65.52" width="1912.20" height="2748.96" style="fill:none;stroke:#FFFFFF;stroke-width:4.32"/>
	<rect x="2213.02" y="209.89" width="1607.88" height="2388.70" style="fill:#FFFFFF"/>
	<rect x="2215.18" y="212.05" width="1603.56" height="2384.38" style="fill:none;stroke:#FFFFFF;stroke-width:4.32"/>
	<line x1="2213.02" y1="2598.58" x2="3820.91" y2="2598.58" style="stroke:#EAF2F3;stroke-width:6.48"/>
	<line x1="2213.02" y1="1818.19" x2="3820.91" y2="1818.19" style="stroke:#EAF2F3;stroke-width:6.48"/>
	<line x1="2213.02" y1="1037.80" x2="3820.91" y2="1037.80" style="stroke:#EAF2F3;stroke-width:6.48"/>
	<rect x="2282.45" y="2598.46" width="43.81" height="0.12" style="fill:#CAC27E"/>
	<rect x="2285.68" y="2595.34" width="37.33" height="6.36" style="fill:none;stroke:#D7D29E;stroke-width:6.48"/>
	<rect x="2326.25" y="2598.46" width="43.93" height="0.12" style="fill:#CAC27E"/>
	<rect x="2329.49" y="2595.34" width="37.45" height="6.36" style="fill:none;stroke:#D7D29E;stroke-width:6.48"/>
	<rect x="2457.92" y="2598.46" width="43.81" height="0.12" style="fill:#CAC27E"/>
	<rect x="2461.16" y="2595.34" width="37.33" height="6.36" style="fill:none;stroke:#D7D29E;stroke-width:6.48"/>
	<rect x="2501.73" y="2598.46" width="43.81" height="0.12" style="fill:#CAC27E"/>
	<rect x="2504.97" y="2595.34" width="37.33" height="6.36" style="fill:none;stroke:#D7D29E;stroke-width:6.48"/>
	<rect x="2545.54" y="2598.46" width="43.93" height="0.12" style="fill:#CAC27E"/>
	<rect x="2548.78" y="2595.34" width="37.45" height="6.36" style="fill:none;stroke:#D7D29E;stroke-width:6.48"/>
	<rect x="2677.08" y="2598.34" width="43.93" height="0.25" style="fill:#CAC27E"/>
	<rect x="2680.32" y="2595.34" width="37.45" height="6.23" style="fill:none;stroke:#D7D29E;stroke-width:6.48"/>
	<rect x="2721.01" y="2598.46" width="43.81" height="0.12" style="fill:#CAC27E"/>
	<rect x="2724.25" y="2595.34" width="37.33" height="6.36" style="fill:none;stroke:#D7D29E;stroke-width:6.48"/>
	<rect x="2808.63" y="2598.34" width="43.93" height="0.25" style="fill:#CAC27E"/>
	<rect x="2811.87" y="2595.34" width="37.45" height="6.23" style="fill:none;stroke:#D7D29E;stroke-width:6.48"/>
	<rect x="2852.56" y="2598.46" width="43.81" height="0.12" style="fill:#CAC27E"/>
	<rect x="2855.80" y="2595.34" width="37.33" height="6.36" style="fill:none;stroke:#D7D29E;stroke-width:6.48"/>
	<rect x="2896.37" y="2598.34" width="43.81" height="0.25" style="fill:#CAC27E"/>
	<rect x="2899.61" y="2595.34" width="37.33" height="6.23" style="fill:none;stroke:#D7D29E;stroke-width:6.48"/>
	<rect x="2940.18" y="2598.34" width="43.93" height="0.25" style="fill:#CAC27E"/>
	<rect x="2943.42" y="2595.34" width="37.45" height="6.23" style="fill:none;stroke:#D7D29E;stroke-width:6.48"/>
	<rect x="2984.11" y="2598.09" width="43.81" height="0.50" style="fill:#CAC27E"/>
	<rect x="2987.35" y="2595.34" width="37.33" height="5.98" style="fill:none;stroke:#D7D29E;stroke-width:6.48"/>
	<rect x="3027.91" y="2597.96" width="43.81" height="0.62" style="fill:#CAC27E"/>
	<rect x="3031.15" y="2595.34" width="37.33" height="5.86" style="fill:none;stroke:#D7D29E;stroke-width:6.48"/>
	<rect x="3071.72" y="2597.72" width="43.93" height="0.87" style="fill:#CAC27E"/>
	<rect x="3074.96" y="2595.34" width="37.45" height="5.61" style="fill:none;stroke:#D7D29E;stroke-width:6.48"/>
	<rect x="3115.65" y="2598.09" width="43.81" height="0.50" style="fill:#CAC27E"/>
	<rect x="3118.89" y="2595.34" width="37.33" height="5.98" style="fill:none;stroke:#D7D29E;stroke-width:6.48"/>
	<rect x="3159.46" y="2596.60" width="43.93" height="1.98" style="fill:#CAC27E"/>
	<rect x="3162.70" y="2595.34" width="37.45" height="4.50" style="fill:none;stroke:#D7D29E;stroke-width:6.48"/>
	<rect x="3203.39" y="2596.23" width="43.81" height="2.35" style="fill:#CAC27E"/>
	<rect x="3206.63" y="2595.34" width="37.33" height="4.13" style="fill:none;stroke:#D7D29E;stroke-width:6.48"/>
	<rect x="3247.20" y="2596.48" width="43.81" height="2.10" style="fill:#CAC27E"/>
	<rect x="3250.44" y="2595.34" width="37.33" height="4.38" style="fill:none;stroke:#D7D29E;stroke-width:6.48"/>
	<rect x="3291.01" y="2595.74" width="43.93" height="2.85" style="fill:#CAC27E"/>
	<rect x="3294.25" y="2595.34" width="37.45" height="3.63" style="fill:none;stroke:#D7D29E;stroke-width:6.48"/>
	<rect x="3334.94" y="2592.89" width="43.81" height="5.69" style="fill:#CAC27E"/>
	<rect x="3338.18" y="2595.34" width="37.33" height="0.79" style="fill:none;stroke:#D7D29E;stroke-width:6.48"/>
	<rect x="3378.75" y="2591.78" width="43.81" height="6.81" style="fill:#CAC27E"/>
	<rect x="3381.99" y="2595.02" width="37.33" height="0.33" style="fill:none;stroke:#D7D29E;stroke-width:6.48"/>
	<rect x="3422.55" y="2590.29" width="43.93" height="8.29" style="fill:#CAC27E"/>
	<rect x="3425.79" y="2593.53" width="37.45" height="1.81" style="fill:none;stroke:#D7D29E;stroke-width:6.48"/>
	<rect x="3466.49" y="2586.08" width="43.81" height="12.50" style="fill:#CAC27E"/>
	<rect x="3469.72" y="2589.32" width="37.33" height="6.02" style="fill:none;stroke:#D7D29E;stroke-width:6.48"/>
	<rect x="3510.29" y="2584.60" width="43.81" height="13.98" style="fill:#CAC27E"/>
	<rect x="3513.53" y="2587.84" width="37.33" height="7.50" style="fill:none;stroke:#D7D29E;stroke-width:6.48"/>
	<rect x="3554.10" y="2579.40" width="43.93" height="19.18" style="fill:#CAC27E"/>
	<rect x="3557.34" y="2582.64" width="37.45" height="12.70" style="fill:none;stroke:#D7D29E;stroke-width:6.48"/>
	<rect x="3598.03" y="2573.71" width="43.81" height="24.87" style="fill:#CAC27E"/>
	<rect x="3601.27" y="2576.95" width="37.33" height="18.39" style="fill:none;stroke:#D7D29E;stroke-width:6.48"/>
	<rect x="3641.84" y="2563.31" width="43.81" height="35.27" style="fill:#CAC27E"/>
	<rect x="3645.08" y="2566.55" width="37.33" height="28.79" style="fill:none;stroke:#D7D29E;stroke-width:6.48"/>
	<rect x="3685.65" y="2553.29" width="43.93" height="45.29" style="fill:#CAC27E"/>
	<rect x="3688.89" y="2556.53" width="37.45" height="38.81" style="fill:none;stroke:#D7D29E;stroke-width:6.48"/>
	<rect x="3729.58" y="2542.03" width="43.81" height="56.56" style="fill:#CAC27E"/>
	<rect x="3732.82" y="2545.27" width="37.33" height="50.08" style="fill:none;stroke:#D7D29E;stroke-width:6.48"/>
	<line x1="2213.02" y1="2598.58" x2="2213.02" y2="209.89" style="stroke:#000000;stroke-width:4.32"/>
	<line x1="2213.02" y1="2598.58" x2="2183.07" y2="2598.58" style="stroke:#000000;stroke-width:4.32"/>
	<text x="2154.40" y="2598.58" style="font-family:'Helvetica';font-size:45.05px;fill:#000000" transform="rotate(-90 2154.40,2598.58)" text-anchor="middle">0</text>
	<line x1="2213.02" y1="1818.19" x2="2183.07" y2="1818.19" style="stroke:#000000;stroke-width:4.32"/>
	<text x="2154.40" y="1818.19" style="font-family:'Helvetica';font-size:45.05px;fill:#000000" transform="rotate(-90 2154.40,1818.19)" text-anchor="middle">1.0e+04</text>
	<line x1="2213.02" y1="1037.80" x2="2183.07" y2="1037.80" style="stroke:#000000;stroke-width:4.32"/>
	<text x="2154.40" y="1037.80" style="font-family:'Helvetica';font-size:45.05px;fill:#000000" transform="rotate(-90 2154.40,1037.80)" text-anchor="middle">2.0e+04</text>
	<line x1="2213.02" y1="257.41" x2="2183.07" y2="257.41" style="stroke:#000000;stroke-width:4.32"/>
	<text x="2154.40" y="257.41" style="font-family:'Helvetica';font-size:45.05px;fill:#000000" transform="rotate(-90 2154.40,257.41)" text-anchor="middle">3.0e+04</text>
	<text x="2101.93" y="1404.24" style="font-family:'Helvetica';font-size:45.05px;fill:#000000" transform="rotate(-90 2101.93,1404.24)" text-anchor="middle">Number</text>
	<line x1="2213.02" y1="2598.58" x2="3820.91" y2="2598.58" style="stroke:#000000;stroke-width:4.32"/>
	<line x1="2333.93" y1="2598.58" x2="2333.93" y2="2628.53" style="stroke:#000000;stroke-width:4.32"/>
	<text x="2333.93" y="2664.41" style="font-family:'Helvetica';font-size:29.95px;fill:#000000" text-anchor="middle">01jan2021</text>
	<line x1="2767.17" y1="2598.58" x2="2767.17" y2="2628.53" style="stroke:#000000;stroke-width:4.32"/>
	<text x="2767.17" y="2664.41" style="font-family:'Helvetica';font-size:29.95px;fill:#000000" text-anchor="middle">01mar2021</text>
	<line x1="3215.27" y1="2598.58" x2="3215.27" y2="2628.53" style="stroke:#000000;stroke-width:4.32"/>
	<text x="3215.27" y="2664.41" style="font-family:'Helvetica';font-size:29.95px;fill:#000000" text-anchor="middle">01may2021</text>
	<line x1="3663.25" y1="2598.58" x2="3663.25" y2="2628.53" style="stroke:#000000;stroke-width:4.32"/>
	<text x="3663.25" y="2664.41" style="font-family:'Helvetica';font-size:29.95px;fill:#000000" text-anchor="middle">01jul2021</text>
	<text x="3017.03" y="2712.47" style="font-family:'Helvetica';font-size:45.05px;fill:#000000" text-anchor="middle">Date of positive SGSS test</text>
	<text x="3017.03" y="183.32" style="font-family:'Helvetica';font-size:45.05px;fill:#1E2D53" text-anchor="middle">N=3088</text>
</svg>
