<?xml version="1.0" encoding="UTF-8" standalone="no"?>
<!-- This is a Stata 16.1 generated SVG file (http://www.stata.com) -->

<svg version="1.1" width="5.50in" height="4.00in" viewBox="0 0 3960 2880" xmlns="http://www.w3.org/2000/svg" xmlns:xlink="http://www.w3.org/1999/xlink">
	<desc>Stata Graph - Graph</desc>
	<rect x="0" y="0" width="3960" height="2880" style="fill:#EAF2F3;stroke:none"/>
	<rect x="0.00" y="0.00" width="3959.88" height="2880.00" style="fill:#FFFFFF"/>
	<rect x="2.88" y="2.88" width="3954.12" height="2874.24" style="fill:none;stroke:#FFFFFF;stroke-width:5.76"/>
	<rect x="63.36" y="63.36" width="1916.64" height="2753.28" style="fill:#FFFFFF"/>
	<rect x="65.52" y="65.52" width="1912.32" height="2748.96" style="fill:none;stroke:#FFFFFF;stroke-width:4.32"/>
	<rect x="296.50" y="209.89" width="1607.88" height="2388.70" style="fill:#FFFFFF"/>
	<rect x="298.66" y="212.05" width="1603.56" height="2384.38" style="fill:none;stroke:#FFFFFF;stroke-width:4.32"/>
	<line x1="296.50" y1="2598.58" x2="1904.39" y2="2598.58" style="stroke:#EAF2F3;stroke-width:6.48"/>
	<line x1="296.50" y1="1818.19" x2="1904.39" y2="1818.19" style="stroke:#EAF2F3;stroke-width:6.48"/>
	<line x1="296.50" y1="1037.80" x2="1904.39" y2="1037.80" style="stroke:#EAF2F3;stroke-width:6.48"/>
	<line x1="296.50" y1="257.41" x2="1904.39" y2="257.41" style="stroke:#EAF2F3;stroke-width:6.48"/>
	<rect x="362.59" y="2399.59" width="37.37" height="199.00" style="fill:#CAC27E"/>
	<rect x="365.83" y="2402.83" width="30.89" height="192.52" style="fill:none;stroke:#D7D29E;stroke-width:6.48"/>
	<rect x="399.96" y="2428.42" width="37.37" height="170.16" style="fill:#CAC27E"/>
	<rect x="403.20" y="2431.66" width="30.89" height="163.68" style="fill:none;stroke:#D7D29E;stroke-width:6.48"/>
	<rect x="437.33" y="2371.50" width="37.37" height="227.09" style="fill:#CAC27E"/>
	<rect x="440.57" y="2374.74" width="30.89" height="220.61" style="fill:none;stroke:#D7D29E;stroke-width:6.48"/>
	<rect x="474.70" y="2419.02" width="37.37" height="179.57" style="fill:#CAC27E"/>
	<rect x="477.94" y="2422.26" width="30.89" height="173.09" style="fill:none;stroke:#D7D29E;stroke-width:6.48"/>
	<rect x="512.08" y="2386.22" width="37.37" height="212.36" style="fill:#CAC27E"/>
	<rect x="515.32" y="2389.46" width="30.89" height="205.88" style="fill:none;stroke:#D7D29E;stroke-width:6.48"/>
	<rect x="549.45" y="2417.53" width="37.37" height="181.05" style="fill:#CAC27E"/>
	<rect x="552.69" y="2420.77" width="30.89" height="174.57" style="fill:none;stroke:#D7D29E;stroke-width:6.48"/>
	<rect x="586.82" y="2398.72" width="37.25" height="199.86" style="fill:#CAC27E"/>
	<rect x="590.06" y="2401.96" width="30.77" height="193.38" style="fill:none;stroke:#D7D29E;stroke-width:6.48"/>
	<rect x="624.07" y="2424.46" width="37.37" height="174.12" style="fill:#CAC27E"/>
	<rect x="627.31" y="2427.70" width="30.89" height="167.64" style="fill:none;stroke:#D7D29E;stroke-width:6.48"/>
	<rect x="661.44" y="2357.39" width="37.37" height="241.20" style="fill:#CAC27E"/>
	<rect x="664.68" y="2360.63" width="30.89" height="234.72" style="fill:none;stroke:#D7D29E;stroke-width:6.48"/>
	<rect x="698.82" y="2401.07" width="37.37" height="197.51" style="fill:#CAC27E"/>
	<rect x="702.06" y="2404.31" width="30.89" height="191.03" style="fill:none;stroke:#D7D29E;stroke-width:6.48"/>
	<rect x="736.19" y="2372.98" width="37.37" height="225.60" style="fill:#CAC27E"/>
	<rect x="739.43" y="2376.22" width="30.89" height="219.12" style="fill:none;stroke:#D7D29E;stroke-width:6.48"/>
	<rect x="773.56" y="2422.98" width="37.37" height="175.61" style="fill:#CAC27E"/>
	<rect x="776.80" y="2426.22" width="30.89" height="169.13" style="fill:none;stroke:#D7D29E;stroke-width:6.48"/>
	<rect x="810.93" y="2383.99" width="37.37" height="214.59" style="fill:#CAC27E"/>
	<rect x="814.17" y="2387.23" width="30.89" height="208.11" style="fill:none;stroke:#D7D29E;stroke-width:6.48"/>
	<rect x="848.31" y="2419.88" width="37.25" height="178.70" style="fill:#CAC27E"/>
	<rect x="851.55" y="2423.12" width="30.77" height="172.22" style="fill:none;stroke:#D7D29E;stroke-width:6.48"/>
	<rect x="885.55" y="2359.74" width="37.37" height="238.84" style="fill:#CAC27E"/>
	<rect x="888.79" y="2362.98" width="30.89" height="232.37" style="fill:none;stroke:#D7D29E;stroke-width:6.48"/>
	<rect x="922.93" y="2416.67" width="37.37" height="181.92" style="fill:#CAC27E"/>
	<rect x="926.17" y="2419.91" width="30.89" height="175.44" style="fill:none;stroke:#D7D29E;stroke-width:6.48"/>
	<rect x="960.30" y="2362.83" width="37.37" height="235.75" style="fill:#CAC27E"/>
	<rect x="963.54" y="2366.07" width="30.89" height="229.27" style="fill:none;stroke:#D7D29E;stroke-width:6.48"/>
	<rect x="997.67" y="2426.81" width="37.37" height="171.77" style="fill:#CAC27E"/>
	<rect x="1000.91" y="2430.05" width="30.89" height="165.29" style="fill:none;stroke:#D7D29E;stroke-width:6.48"/>
	<rect x="1035.05" y="2377.68" width="37.37" height="220.90" style="fill:#CAC27E"/>
	<rect x="1038.28" y="2380.92" width="30.89" height="214.42" style="fill:none;stroke:#D7D29E;stroke-width:6.48"/>
	<rect x="1072.42" y="2431.52" width="37.37" height="167.07" style="fill:#CAC27E"/>
	<rect x="1075.66" y="2434.76" width="30.89" height="160.59" style="fill:none;stroke:#D7D29E;stroke-width:6.48"/>
	<rect x="1109.79" y="2422.23" width="37.25" height="176.35" style="fill:#CAC27E"/>
	<rect x="1113.03" y="2425.47" width="30.77" height="169.87" style="fill:none;stroke:#D7D29E;stroke-width:6.48"/>
	<rect x="1147.04" y="2387.09" width="37.37" height="211.50" style="fill:#CAC27E"/>
	<rect x="1150.28" y="2390.33" width="30.89" height="205.02" style="fill:none;stroke:#D7D29E;stroke-width:6.48"/>
	<rect x="1184.41" y="2422.98" width="37.37" height="175.61" style="fill:#CAC27E"/>
	<rect x="1187.65" y="2426.22" width="30.89" height="169.13" style="fill:none;stroke:#D7D29E;stroke-width:6.48"/>
	<rect x="1221.78" y="2364.44" width="37.37" height="234.14" style="fill:#CAC27E"/>
	<rect x="1225.02" y="2367.68" width="30.89" height="227.66" style="fill:none;stroke:#D7D29E;stroke-width:6.48"/>
	<rect x="1259.16" y="2430.77" width="37.37" height="167.81" style="fill:#CAC27E"/>
	<rect x="1262.40" y="2434.01" width="30.89" height="161.33" style="fill:none;stroke:#D7D29E;stroke-width:6.48"/>
	<rect x="1296.53" y="2362.83" width="37.37" height="235.75" style="fill:#CAC27E"/>
	<rect x="1299.77" y="2366.07" width="30.89" height="229.27" style="fill:none;stroke:#D7D29E;stroke-width:6.48"/>
	<rect x="1333.90" y="2415.18" width="37.37" height="183.40" style="fill:#CAC27E"/>
	<rect x="1337.14" y="2418.42" width="30.89" height="176.92" style="fill:none;stroke:#D7D29E;stroke-width:6.48"/>
	<rect x="1371.27" y="2374.59" width="37.25" height="223.99" style="fill:#CAC27E"/>
	<rect x="1374.51" y="2377.83" width="30.77" height="217.51" style="fill:none;stroke:#D7D29E;stroke-width:6.48"/>
	<rect x="1408.52" y="2412.83" width="37.37" height="185.75" style="fill:#CAC27E"/>
	<rect x="1411.76" y="2416.07" width="30.89" height="179.27" style="fill:none;stroke:#D7D29E;stroke-width:6.48"/>
	<rect x="1445.89" y="2349.59" width="37.37" height="248.99" style="fill:#CAC27E"/>
	<rect x="1449.13" y="2352.83" width="30.89" height="242.51" style="fill:none;stroke:#D7D29E;stroke-width:6.48"/>
	<rect x="1483.27" y="2407.38" width="37.37" height="191.20" style="fill:#CAC27E"/>
	<rect x="1486.51" y="2410.62" width="30.89" height="184.72" style="fill:none;stroke:#D7D29E;stroke-width:6.48"/>
	<rect x="1520.64" y="2381.64" width="37.37" height="216.94" style="fill:#CAC27E"/>
	<rect x="1523.88" y="2384.88" width="30.89" height="210.46" style="fill:none;stroke:#D7D29E;stroke-width:6.48"/>
	<rect x="1558.01" y="2400.33" width="37.37" height="198.25" style="fill:#CAC27E"/>
	<rect x="1561.25" y="2403.57" width="30.89" height="191.77" style="fill:none;stroke:#D7D29E;stroke-width:6.48"/>
	<rect x="1595.38" y="2398.72" width="37.37" height="199.86" style="fill:#CAC27E"/>
	<rect x="1598.62" y="2401.96" width="30.89" height="193.38" style="fill:none;stroke:#D7D29E;stroke-width:6.48"/>
	<rect x="1632.63" y="2421.37" width="37.37" height="177.22" style="fill:#CAC27E"/>
	<rect x="1635.87" y="2424.61" width="30.89" height="170.74" style="fill:none;stroke:#D7D29E;stroke-width:6.48"/>
	<rect x="1670.01" y="2375.33" width="37.37" height="223.25" style="fill:#CAC27E"/>
	<rect x="1673.25" y="2378.57" width="30.89" height="216.77" style="fill:none;stroke:#D7D29E;stroke-width:6.48"/>
	<rect x="1707.38" y="2394.14" width="37.37" height="204.44" style="fill:#CAC27E"/>
	<rect x="1710.62" y="2397.38" width="30.89" height="197.96" style="fill:none;stroke:#D7D29E;stroke-width:6.48"/>
	<rect x="1744.75" y="2387.83" width="37.37" height="210.75" style="fill:#CAC27E"/>
	<rect x="1747.99" y="2391.07" width="30.89" height="204.27" style="fill:none;stroke:#D7D29E;stroke-width:6.48"/>
	<rect x="1782.12" y="2415.92" width="37.37" height="182.66" style="fill:#CAC27E"/>
	<rect x="1785.36" y="2419.16" width="30.89" height="176.18" style="fill:none;stroke:#D7D29E;stroke-width:6.48"/>
	<rect x="1819.50" y="2407.38" width="37.37" height="191.20" style="fill:#CAC27E"/>
	<rect x="1822.74" y="2410.62" width="30.89" height="184.72" style="fill:none;stroke:#D7D29E;stroke-width:6.48"/>
	<line x1="296.50" y1="2598.58" x2="296.50" y2="209.89" style="stroke:#000000;stroke-width:4.32"/>
	<line x1="296.50" y1="2598.58" x2="266.43" y2="2598.58" style="stroke:#000000;stroke-width:4.32"/>
	<text x="237.88" y="2598.58" style="font-family:'Helvetica';font-size:45.05px;fill:#000000" transform="rotate(-90 237.88,2598.58)" text-anchor="middle">0</text>
	<line x1="296.50" y1="1818.19" x2="266.43" y2="1818.19" style="stroke:#000000;stroke-width:4.32"/>
	<text x="237.88" y="1818.19" style="font-family:'Helvetica';font-size:45.05px;fill:#000000" transform="rotate(-90 237.88,1818.19)" text-anchor="middle">1000</text>
	<line x1="296.50" y1="1037.80" x2="266.43" y2="1037.80" style="stroke:#000000;stroke-width:4.32"/>
	<text x="237.88" y="1037.80" style="font-family:'Helvetica';font-size:45.05px;fill:#000000" transform="rotate(-90 237.88,1037.80)" text-anchor="middle">2000</text>
	<line x1="296.50" y1="257.41" x2="266.43" y2="257.41" style="stroke:#000000;stroke-width:4.32"/>
	<text x="237.88" y="257.41" style="font-family:'Helvetica';font-size:45.05px;fill:#000000" transform="rotate(-90 237.88,257.41)" text-anchor="middle">3000</text>
	<text x="185.41" y="1404.24" style="font-family:'Helvetica';font-size:45.05px;fill:#000000" transform="rotate(-90 185.41,1404.24)" text-anchor="middle">Number</text>
	<line x1="296.50" y1="2598.58" x2="1904.39" y2="2598.58" style="stroke:#000000;stroke-width:4.32"/>
	<line x1="519.63" y1="2598.58" x2="519.63" y2="2628.53" style="stroke:#000000;stroke-width:4.32"/>
	<text x="519.63" y="2664.41" style="font-family:'Helvetica';font-size:29.95px;fill:#000000" text-anchor="middle">01jan2021</text>
	<line x1="922.06" y1="2598.58" x2="922.06" y2="2628.53" style="stroke:#000000;stroke-width:4.32"/>
	<text x="922.06" y="2664.41" style="font-family:'Helvetica';font-size:29.95px;fill:#000000" text-anchor="middle">01mar2021</text>
	<line x1="1338.36" y1="2598.58" x2="1338.36" y2="2628.53" style="stroke:#000000;stroke-width:4.32"/>
	<text x="1338.36" y="2664.41" style="font-family:'Helvetica';font-size:29.95px;fill:#000000" text-anchor="middle">01may2021</text>
	<line x1="1754.53" y1="2598.58" x2="1754.53" y2="2628.53" style="stroke:#000000;stroke-width:4.32"/>
	<text x="1754.53" y="2664.41" style="font-family:'Helvetica';font-size:29.95px;fill:#000000" text-anchor="middle">01jul2021</text>
	<text x="1100.38" y="2712.47" style="font-family:'Helvetica';font-size:45.05px;fill:#000000" text-anchor="middle">First vacc date</text>
	<text x="1100.38" y="183.32" style="font-family:'Helvetica';font-size:45.05px;fill:#1E2D53" text-anchor="middle">N=</text>
	<rect x="1980.00" y="63.36" width="1916.52" height="2753.28" style="fill:#FFFFFF"/>
	<rect x="1982.16" y="65.52" width="1912.20" height="2748.96" style="fill:none;stroke:#FFFFFF;stroke-width:4.32"/>
	<rect x="2213.02" y="209.89" width="1607.88" height="2388.70" style="fill:#FFFFFF"/>
	<rect x="2215.18" y="212.05" width="1603.56" height="2384.38" style="fill:none;stroke:#FFFFFF;stroke-width:4.32"/>
	<line x1="2213.02" y1="2598.58" x2="3820.91" y2="2598.58" style="stroke:#EAF2F3;stroke-width:6.48"/>
	<line x1="2213.02" y1="1818.19" x2="3820.91" y2="1818.19" style="stroke:#EAF2F3;stroke-width:6.48"/>
	<line x1="2213.02" y1="1037.80" x2="3820.91" y2="1037.80" style="stroke:#EAF2F3;stroke-width:6.48"/>
	<line x1="2213.02" y1="257.41" x2="3820.91" y2="257.41" style="stroke:#EAF2F3;stroke-width:6.48"/>
	<rect x="2280.71" y="2448.72" width="40.34" height="149.87" style="fill:#CAC27E"/>
	<rect x="2283.95" y="2451.96" width="33.86" height="143.39" style="fill:none;stroke:#D7D29E;stroke-width:6.48"/>
	<rect x="2321.05" y="2480.77" width="40.34" height="117.81" style="fill:#CAC27E"/>
	<rect x="2324.29" y="2484.01" width="33.86" height="111.33" style="fill:none;stroke:#D7D29E;stroke-width:6.48"/>
	<rect x="2361.40" y="2440.92" width="40.34" height="157.66" style="fill:#CAC27E"/>
	<rect x="2364.64" y="2444.16" width="33.86" height="151.18" style="fill:none;stroke:#D7D29E;stroke-width:6.48"/>
	<rect x="2401.74" y="2479.16" width="40.34" height="119.42" style="fill:#CAC27E"/>
	<rect x="2404.98" y="2482.40" width="33.86" height="112.94" style="fill:none;stroke:#D7D29E;stroke-width:6.48"/>
	<rect x="2442.08" y="2483.00" width="40.34" height="115.59" style="fill:#CAC27E"/>
	<rect x="2445.32" y="2486.24" width="33.86" height="109.11" style="fill:none;stroke:#D7D29E;stroke-width:6.48"/>
	<rect x="2482.43" y="2465.92" width="40.34" height="132.66" style="fill:#CAC27E"/>
	<rect x="2485.66" y="2469.16" width="33.86" height="126.18" style="fill:none;stroke:#D7D29E;stroke-width:6.48"/>
	<rect x="2522.77" y="2486.96" width="40.34" height="111.63" style="fill:#CAC27E"/>
	<rect x="2526.01" y="2490.20" width="33.86" height="105.15" style="fill:none;stroke:#D7D29E;stroke-width:6.48"/>
	<rect x="2563.11" y="2476.07" width="40.34" height="122.52" style="fill:#CAC27E"/>
	<rect x="2566.35" y="2479.31" width="33.86" height="116.04" style="fill:none;stroke:#D7D29E;stroke-width:6.48"/>
	<rect x="2603.45" y="2440.18" width="40.34" height="158.40" style="fill:#CAC27E"/>
	<rect x="2606.69" y="2443.42" width="33.86" height="151.93" style="fill:none;stroke:#D7D29E;stroke-width:6.48"/>
	<rect x="2643.80" y="2484.61" width="40.34" height="113.98" style="fill:#CAC27E"/>
	<rect x="2647.03" y="2487.85" width="33.86" height="107.50" style="fill:none;stroke:#D7D29E;stroke-width:6.48"/>
	<rect x="2684.14" y="2472.11" width="40.34" height="126.48" style="fill:#CAC27E"/>
	<rect x="2687.38" y="2475.35" width="33.86" height="120.00" style="fill:none;stroke:#D7D29E;stroke-width:6.48"/>
	<rect x="2724.48" y="2457.26" width="40.34" height="141.33" style="fill:#CAC27E"/>
	<rect x="2727.72" y="2460.50" width="33.86" height="134.85" style="fill:none;stroke:#D7D29E;stroke-width:6.48"/>
	<rect x="2764.82" y="2479.90" width="40.34" height="118.68" style="fill:#CAC27E"/>
	<rect x="2768.06" y="2483.14" width="33.86" height="112.20" style="fill:none;stroke:#D7D29E;stroke-width:6.48"/>
	<rect x="2805.16" y="2475.20" width="40.34" height="123.38" style="fill:#CAC27E"/>
	<rect x="2808.40" y="2478.44" width="33.86" height="116.90" style="fill:none;stroke:#D7D29E;stroke-width:6.48"/>
	<rect x="2845.51" y="2478.42" width="40.34" height="120.17" style="fill:#CAC27E"/>
	<rect x="2848.75" y="2481.66" width="33.86" height="113.69" style="fill:none;stroke:#D7D29E;stroke-width:6.48"/>
	<rect x="2885.85" y="2479.90" width="40.34" height="118.68" style="fill:#CAC27E"/>
	<rect x="2889.09" y="2483.14" width="33.86" height="112.20" style="fill:none;stroke:#D7D29E;stroke-width:6.48"/>
	<rect x="2926.19" y="2490.79" width="40.34" height="107.79" style="fill:#CAC27E"/>
	<rect x="2929.43" y="2494.03" width="33.86" height="101.31" style="fill:none;stroke:#D7D29E;stroke-width:6.48"/>
	<rect x="2966.53" y="2431.52" width="40.34" height="167.07" style="fill:#CAC27E"/>
	<rect x="2969.77" y="2434.76" width="33.86" height="160.59" style="fill:none;stroke:#D7D29E;stroke-width:6.48"/>
	<rect x="3006.88" y="2481.51" width="40.34" height="117.07" style="fill:#CAC27E"/>
	<rect x="3010.12" y="2484.75" width="33.86" height="110.59" style="fill:none;stroke:#D7D29E;stroke-width:6.48"/>
	<rect x="3047.22" y="2440.92" width="40.34" height="157.66" style="fill:#CAC27E"/>
	<rect x="3050.46" y="2444.16" width="33.86" height="151.18" style="fill:none;stroke:#D7D29E;stroke-width:6.48"/>
	<rect x="3087.56" y="2478.42" width="40.34" height="120.17" style="fill:#CAC27E"/>
	<rect x="3090.80" y="2481.66" width="33.86" height="113.69" style="fill:none;stroke:#D7D29E;stroke-width:6.48"/>
	<rect x="3127.91" y="2482.26" width="40.34" height="116.33" style="fill:#CAC27E"/>
	<rect x="3131.14" y="2485.49" width="33.86" height="109.85" style="fill:none;stroke:#D7D29E;stroke-width:6.48"/>
	<rect x="3168.25" y="2453.42" width="40.34" height="145.16" style="fill:#CAC27E"/>
	<rect x="3171.49" y="2456.66" width="33.86" height="138.68" style="fill:none;stroke:#D7D29E;stroke-width:6.48"/>
	<rect x="3208.59" y="2487.70" width="40.34" height="110.88" style="fill:#CAC27E"/>
	<rect x="3211.83" y="2490.94" width="33.86" height="104.40" style="fill:none;stroke:#D7D29E;stroke-width:6.48"/>
	<rect x="3248.93" y="2483.86" width="40.34" height="114.72" style="fill:#CAC27E"/>
	<rect x="3252.17" y="2487.10" width="33.86" height="108.24" style="fill:none;stroke:#D7D29E;stroke-width:6.48"/>
	<rect x="3289.28" y="2453.42" width="40.34" height="145.16" style="fill:#CAC27E"/>
	<rect x="3292.51" y="2456.66" width="33.86" height="138.68" style="fill:none;stroke:#D7D29E;stroke-width:6.48"/>
	<rect x="3329.62" y="2485.35" width="40.34" height="113.23" style="fill:#CAC27E"/>
	<rect x="3332.86" y="2488.59" width="33.86" height="106.75" style="fill:none;stroke:#D7D29E;stroke-width:6.48"/>
	<rect x="3369.96" y="2477.55" width="40.34" height="121.03" style="fill:#CAC27E"/>
	<rect x="3373.20" y="2480.79" width="33.86" height="114.55" style="fill:none;stroke:#D7D29E;stroke-width:6.48"/>
	<rect x="3410.30" y="2469.76" width="40.34" height="128.83" style="fill:#CAC27E"/>
	<rect x="3413.54" y="2473.00" width="33.86" height="122.35" style="fill:none;stroke:#D7D29E;stroke-width:6.48"/>
	<rect x="3450.64" y="2466.66" width="40.34" height="131.92" style="fill:#CAC27E"/>
	<rect x="3453.88" y="2469.90" width="33.86" height="125.44" style="fill:none;stroke:#D7D29E;stroke-width:6.48"/>
	<rect x="3490.99" y="2489.31" width="40.34" height="109.27" style="fill:#CAC27E"/>
	<rect x="3494.23" y="2492.55" width="33.86" height="102.79" style="fill:none;stroke:#D7D29E;stroke-width:6.48"/>
	<rect x="3531.33" y="2447.11" width="40.34" height="151.47" style="fill:#CAC27E"/>
	<rect x="3534.57" y="2450.35" width="33.86" height="144.99" style="fill:none;stroke:#D7D29E;stroke-width:6.48"/>
	<rect x="3571.67" y="2486.22" width="40.34" height="112.37" style="fill:#CAC27E"/>
	<rect x="3574.91" y="2489.46" width="33.86" height="105.89" style="fill:none;stroke:#D7D29E;stroke-width:6.48"/>
	<rect x="3612.01" y="2468.27" width="40.34" height="130.31" style="fill:#CAC27E"/>
	<rect x="3615.25" y="2471.51" width="33.86" height="123.83" style="fill:none;stroke:#D7D29E;stroke-width:6.48"/>
	<rect x="3652.36" y="2458.12" width="40.34" height="140.46" style="fill:#CAC27E"/>
	<rect x="3655.60" y="2461.36" width="33.86" height="133.98" style="fill:none;stroke:#D7D29E;stroke-width:6.48"/>
	<rect x="3692.70" y="2486.22" width="40.34" height="112.37" style="fill:#CAC27E"/>
	<rect x="3695.94" y="2489.46" width="33.86" height="105.89" style="fill:none;stroke:#D7D29E;stroke-width:6.48"/>
	<rect x="3733.04" y="2458.87" width="40.34" height="139.72" style="fill:#CAC27E"/>
	<rect x="3736.28" y="2462.11" width="33.86" height="133.24" style="fill:none;stroke:#D7D29E;stroke-width:6.48"/>
	<line x1="2213.02" y1="2598.58" x2="2213.02" y2="209.89" style="stroke:#000000;stroke-width:4.32"/>
	<line x1="2213.02" y1="2598.58" x2="2183.07" y2="2598.58" style="stroke:#000000;stroke-width:4.32"/>
	<text x="2154.40" y="2598.58" style="font-family:'Helvetica';font-size:45.05px;fill:#000000" transform="rotate(-90 2154.40,2598.58)" text-anchor="middle">0</text>
	<line x1="2213.02" y1="1818.19" x2="2183.07" y2="1818.19" style="stroke:#000000;stroke-width:4.32"/>
	<text x="2154.40" y="1818.19" style="font-family:'Helvetica';font-size:45.05px;fill:#000000" transform="rotate(-90 2154.40,1818.19)" text-anchor="middle">1000</text>
	<line x1="2213.02" y1="1037.80" x2="2183.07" y2="1037.80" style="stroke:#000000;stroke-width:4.32"/>
	<text x="2154.40" y="1037.80" style="font-family:'Helvetica';font-size:45.05px;fill:#000000" transform="rotate(-90 2154.40,1037.80)" text-anchor="middle">2000</text>
	<line x1="2213.02" y1="257.41" x2="2183.07" y2="257.41" style="stroke:#000000;stroke-width:4.32"/>
	<text x="2154.40" y="257.41" style="font-family:'Helvetica';font-size:45.05px;fill:#000000" transform="rotate(-90 2154.40,257.41)" text-anchor="middle">3000</text>
	<text x="2101.93" y="1404.24" style="font-family:'Helvetica';font-size:45.05px;fill:#000000" transform="rotate(-90 2101.93,1404.24)" text-anchor="middle">Number</text>
	<line x1="2213.02" y1="2598.58" x2="3820.91" y2="2598.58" style="stroke:#000000;stroke-width:4.32"/>
	<line x1="2295.81" y1="2598.58" x2="2295.81" y2="2628.53" style="stroke:#000000;stroke-width:4.32"/>
	<text x="2295.81" y="2664.41" style="font-family:'Helvetica';font-size:29.95px;fill:#000000" text-anchor="middle">01jan2021</text>
	<line x1="2740.57" y1="2598.58" x2="2740.57" y2="2628.53" style="stroke:#000000;stroke-width:4.32"/>
	<text x="2740.57" y="2664.41" style="font-family:'Helvetica';font-size:29.95px;fill:#000000" text-anchor="middle">01mar2021</text>
	<line x1="3200.42" y1="2598.58" x2="3200.42" y2="2628.53" style="stroke:#000000;stroke-width:4.32"/>
	<text x="3200.42" y="2664.41" style="font-family:'Helvetica';font-size:29.95px;fill:#000000" text-anchor="middle">01may2021</text>
	<line x1="3660.28" y1="2598.58" x2="3660.28" y2="2628.53" style="stroke:#000000;stroke-width:4.32"/>
	<text x="3660.28" y="2664.41" style="font-family:'Helvetica';font-size:29.95px;fill:#000000" text-anchor="middle">01jul2021</text>
	<text x="3017.03" y="2712.47" style="font-family:'Helvetica';font-size:45.05px;fill:#000000" text-anchor="middle">Second vacc date</text>
	<text x="3017.03" y="183.32" style="font-family:'Helvetica';font-size:45.05px;fill:#1E2D53" text-anchor="middle">N=</text>
</svg>
