<?xml version="1.0" encoding="UTF-8" standalone="no"?>
<!-- This is a Stata 16.1 generated SVG file (http://www.stata.com) -->

<svg version="1.1" width="5.50in" height="4.00in" viewBox="0 0 3960 2880" xmlns="http://www.w3.org/2000/svg" xmlns:xlink="http://www.w3.org/1999/xlink">
	<desc>Stata Graph - Graph</desc>
	<rect x="0" y="0" width="3960" height="2880" style="fill:#EAF2F3;stroke:none"/>
	<rect x="0.00" y="0.00" width="3959.88" height="2880.00" style="fill:#FFFFFF"/>
	<rect x="2.88" y="2.88" width="3954.12" height="2874.24" style="fill:none;stroke:#FFFFFF;stroke-width:5.76"/>
	<rect x="63.36" y="63.36" width="1916.64" height="1376.64" style="fill:#FFFFFF"/>
	<rect x="65.52" y="65.52" width="1912.32" height="1372.32" style="fill:none;stroke:#FFFFFF;stroke-width:4.32"/>
	<rect x="296.50" y="209.89" width="1607.88" height="1012.06" style="fill:#FFFFFF"/>
	<rect x="298.66" y="212.05" width="1603.56" height="1007.74" style="fill:none;stroke:#FFFFFF;stroke-width:4.32"/>
	<line x1="296.50" y1="1221.95" x2="1904.39" y2="1221.95" style="stroke:#EAF2F3;stroke-width:6.48"/>
	<line x1="296.50" y1="900.43" x2="1904.39" y2="900.43" style="stroke:#EAF2F3;stroke-width:6.48"/>
	<line x1="296.50" y1="578.92" x2="1904.39" y2="578.92" style="stroke:#EAF2F3;stroke-width:6.48"/>
	<rect x="361.72" y="1206.97" width="35.64" height="14.97" style="fill:#CAC27E"/>
	<rect x="364.96" y="1210.21" width="29.16" height="8.49" style="fill:none;stroke:#D7D29E;stroke-width:6.48"/>
	<rect x="397.36" y="1207.59" width="35.64" height="14.36" style="fill:#CAC27E"/>
	<rect x="400.60" y="1210.83" width="29.16" height="7.88" style="fill:none;stroke:#D7D29E;stroke-width:6.48"/>
	<rect x="433.00" y="1206.60" width="35.52" height="15.35" style="fill:#CAC27E"/>
	<rect x="436.24" y="1209.84" width="29.04" height="8.87" style="fill:none;stroke:#D7D29E;stroke-width:6.48"/>
	<rect x="468.52" y="1207.22" width="35.64" height="14.73" style="fill:#CAC27E"/>
	<rect x="471.76" y="1210.46" width="29.16" height="8.25" style="fill:none;stroke:#D7D29E;stroke-width:6.48"/>
	<rect x="504.16" y="1207.10" width="35.64" height="14.85" style="fill:#CAC27E"/>
	<rect x="507.40" y="1210.34" width="29.16" height="8.37" style="fill:none;stroke:#D7D29E;stroke-width:6.48"/>
	<rect x="539.80" y="1206.97" width="35.52" height="14.97" style="fill:#CAC27E"/>
	<rect x="543.04" y="1210.21" width="29.04" height="8.49" style="fill:none;stroke:#D7D29E;stroke-width:6.48"/>
	<rect x="575.31" y="1206.97" width="35.64" height="14.97" style="fill:#CAC27E"/>
	<rect x="578.55" y="1210.21" width="29.16" height="8.49" style="fill:none;stroke:#D7D29E;stroke-width:6.48"/>
	<rect x="610.95" y="1207.96" width="35.64" height="13.98" style="fill:#CAC27E"/>
	<rect x="614.19" y="1211.20" width="29.16" height="7.50" style="fill:none;stroke:#D7D29E;stroke-width:6.48"/>
	<rect x="646.59" y="1207.10" width="35.52" height="14.85" style="fill:#CAC27E"/>
	<rect x="649.83" y="1210.34" width="29.04" height="8.37" style="fill:none;stroke:#D7D29E;stroke-width:6.48"/>
	<rect x="682.11" y="1207.47" width="35.64" height="14.48" style="fill:#CAC27E"/>
	<rect x="685.35" y="1210.71" width="29.16" height="8.00" style="fill:none;stroke:#D7D29E;stroke-width:6.48"/>
	<rect x="717.75" y="1207.22" width="35.52" height="14.73" style="fill:#CAC27E"/>
	<rect x="720.99" y="1210.46" width="29.04" height="8.25" style="fill:none;stroke:#D7D29E;stroke-width:6.48"/>
	<rect x="753.27" y="1206.97" width="35.64" height="14.97" style="fill:#CAC27E"/>
	<rect x="756.51" y="1210.21" width="29.16" height="8.49" style="fill:none;stroke:#D7D29E;stroke-width:6.48"/>
	<rect x="788.91" y="1206.60" width="35.64" height="15.35" style="fill:#CAC27E"/>
	<rect x="792.15" y="1209.84" width="29.16" height="8.87" style="fill:none;stroke:#D7D29E;stroke-width:6.48"/>
	<rect x="824.55" y="1210.68" width="35.52" height="11.26" style="fill:#CAC27E"/>
	<rect x="827.79" y="1213.92" width="29.04" height="4.78" style="fill:none;stroke:#D7D29E;stroke-width:6.48"/>
	<rect x="860.06" y="1207.22" width="35.64" height="14.73" style="fill:#CAC27E"/>
	<rect x="863.30" y="1210.46" width="29.16" height="8.25" style="fill:none;stroke:#D7D29E;stroke-width:6.48"/>
	<rect x="895.70" y="1206.23" width="35.64" height="15.72" style="fill:#CAC27E"/>
	<rect x="898.94" y="1209.47" width="29.16" height="9.24" style="fill:none;stroke:#D7D29E;stroke-width:6.48"/>
	<rect x="931.34" y="1208.46" width="35.52" height="13.49" style="fill:#CAC27E"/>
	<rect x="934.58" y="1211.70" width="29.04" height="7.01" style="fill:none;stroke:#D7D29E;stroke-width:6.48"/>
	<rect x="966.86" y="1207.71" width="35.64" height="14.23" style="fill:#CAC27E"/>
	<rect x="970.10" y="1210.95" width="29.16" height="7.75" style="fill:none;stroke:#D7D29E;stroke-width:6.48"/>
	<rect x="1002.50" y="1206.97" width="35.64" height="14.97" style="fill:#CAC27E"/>
	<rect x="1005.74" y="1210.21" width="29.16" height="8.49" style="fill:none;stroke:#D7D29E;stroke-width:6.48"/>
	<rect x="1038.14" y="1208.09" width="35.52" height="13.86" style="fill:#CAC27E"/>
	<rect x="1041.38" y="1211.33" width="29.04" height="7.38" style="fill:none;stroke:#D7D29E;stroke-width:6.48"/>
	<rect x="1073.65" y="1207.59" width="35.64" height="14.36" style="fill:#CAC27E"/>
	<rect x="1076.89" y="1210.83" width="29.16" height="7.88" style="fill:none;stroke:#D7D29E;stroke-width:6.48"/>
	<rect x="1109.30" y="1206.48" width="35.64" height="15.47" style="fill:#CAC27E"/>
	<rect x="1112.53" y="1209.72" width="29.16" height="8.99" style="fill:none;stroke:#D7D29E;stroke-width:6.48"/>
	<rect x="1144.93" y="1206.72" width="35.52" height="15.22" style="fill:#CAC27E"/>
	<rect x="1148.17" y="1209.96" width="29.04" height="8.74" style="fill:none;stroke:#D7D29E;stroke-width:6.48"/>
	<rect x="1180.45" y="1205.98" width="35.64" height="15.96" style="fill:#CAC27E"/>
	<rect x="1183.69" y="1209.22" width="29.16" height="9.48" style="fill:none;stroke:#D7D29E;stroke-width:6.48"/>
	<rect x="1216.09" y="1207.10" width="35.64" height="14.85" style="fill:#CAC27E"/>
	<rect x="1219.33" y="1210.34" width="29.16" height="8.37" style="fill:none;stroke:#D7D29E;stroke-width:6.48"/>
	<rect x="1251.73" y="1206.85" width="35.52" height="15.10" style="fill:#CAC27E"/>
	<rect x="1254.97" y="1210.09" width="29.04" height="8.62" style="fill:none;stroke:#D7D29E;stroke-width:6.48"/>
	<rect x="1287.25" y="1207.22" width="35.64" height="14.73" style="fill:#CAC27E"/>
	<rect x="1290.49" y="1210.46" width="29.16" height="8.25" style="fill:none;stroke:#D7D29E;stroke-width:6.48"/>
	<rect x="1322.89" y="1209.20" width="35.64" height="12.75" style="fill:#CAC27E"/>
	<rect x="1326.13" y="1212.44" width="29.16" height="6.27" style="fill:none;stroke:#D7D29E;stroke-width:6.48"/>
	<rect x="1358.53" y="1207.96" width="35.52" height="13.98" style="fill:#CAC27E"/>
	<rect x="1361.77" y="1211.20" width="29.04" height="7.50" style="fill:none;stroke:#D7D29E;stroke-width:6.48"/>
	<rect x="1394.04" y="1206.97" width="35.64" height="14.97" style="fill:#CAC27E"/>
	<rect x="1397.28" y="1210.21" width="29.16" height="8.49" style="fill:none;stroke:#D7D29E;stroke-width:6.48"/>
	<rect x="1429.68" y="1207.47" width="35.64" height="14.48" style="fill:#CAC27E"/>
	<rect x="1432.92" y="1210.71" width="29.16" height="8.00" style="fill:none;stroke:#D7D29E;stroke-width:6.48"/>
	<rect x="1465.20" y="1207.10" width="35.64" height="14.85" style="fill:#CAC27E"/>
	<rect x="1468.44" y="1210.34" width="29.16" height="8.37" style="fill:none;stroke:#D7D29E;stroke-width:6.48"/>
	<rect x="1500.84" y="1207.59" width="35.64" height="14.36" style="fill:#CAC27E"/>
	<rect x="1504.08" y="1210.83" width="29.16" height="7.88" style="fill:none;stroke:#D7D29E;stroke-width:6.48"/>
	<rect x="1536.48" y="1207.96" width="35.52" height="13.98" style="fill:#CAC27E"/>
	<rect x="1539.72" y="1211.20" width="29.04" height="7.50" style="fill:none;stroke:#D7D29E;stroke-width:6.48"/>
	<rect x="1572.00" y="1205.49" width="35.64" height="16.46" style="fill:#CAC27E"/>
	<rect x="1575.24" y="1208.73" width="29.16" height="9.98" style="fill:none;stroke:#D7D29E;stroke-width:6.48"/>
	<rect x="1607.64" y="1207.96" width="35.64" height="13.98" style="fill:#CAC27E"/>
	<rect x="1610.88" y="1211.20" width="29.16" height="7.50" style="fill:none;stroke:#D7D29E;stroke-width:6.48"/>
	<rect x="1643.28" y="1206.48" width="35.52" height="15.47" style="fill:#CAC27E"/>
	<rect x="1646.52" y="1209.72" width="29.04" height="8.99" style="fill:none;stroke:#D7D29E;stroke-width:6.48"/>
	<rect x="1678.79" y="1205.61" width="35.64" height="16.34" style="fill:#CAC27E"/>
	<rect x="1682.03" y="1208.85" width="29.16" height="9.86" style="fill:none;stroke:#D7D29E;stroke-width:6.48"/>
	<rect x="1714.43" y="1208.33" width="35.64" height="13.61" style="fill:#CAC27E"/>
	<rect x="1717.67" y="1211.57" width="29.16" height="7.13" style="fill:none;stroke:#D7D29E;stroke-width:6.48"/>
	<rect x="1750.07" y="1207.10" width="35.52" height="14.85" style="fill:#CAC27E"/>
	<rect x="1753.31" y="1210.34" width="29.04" height="8.37" style="fill:none;stroke:#D7D29E;stroke-width:6.48"/>
	<rect x="1785.59" y="1206.85" width="35.64" height="15.10" style="fill:#CAC27E"/>
	<rect x="1788.83" y="1210.09" width="29.16" height="8.62" style="fill:none;stroke:#D7D29E;stroke-width:6.48"/>
	<rect x="1821.23" y="1205.86" width="35.64" height="16.09" style="fill:#CAC27E"/>
	<rect x="1824.47" y="1209.10" width="29.16" height="9.61" style="fill:none;stroke:#D7D29E;stroke-width:6.48"/>
	<line x1="296.50" y1="1221.95" x2="296.50" y2="209.89" style="stroke:#000000;stroke-width:4.32"/>
	<line x1="296.50" y1="1221.95" x2="266.43" y2="1221.95" style="stroke:#000000;stroke-width:4.32"/>
	<text x="237.88" y="1221.95" style="font-family:'Helvetica';font-size:45.05px;fill:#000000" transform="rotate(-90 237.88,1221.95)" text-anchor="middle">0</text>
	<line x1="296.50" y1="900.43" x2="266.43" y2="900.43" style="stroke:#000000;stroke-width:4.32"/>
	<text x="237.88" y="900.43" style="font-family:'Helvetica';font-size:45.05px;fill:#000000" transform="rotate(-90 237.88,900.43)" text-anchor="middle">1.0e+04</text>
	<line x1="296.50" y1="578.92" x2="266.43" y2="578.92" style="stroke:#000000;stroke-width:4.32"/>
	<text x="237.88" y="578.92" style="font-family:'Helvetica';font-size:45.05px;fill:#000000" transform="rotate(-90 237.88,578.92)" text-anchor="middle">2.0e+04</text>
	<line x1="296.50" y1="257.41" x2="266.43" y2="257.41" style="stroke:#000000;stroke-width:4.32"/>
	<text x="237.88" y="257.41" style="font-family:'Helvetica';font-size:45.05px;fill:#000000" transform="rotate(-90 237.88,257.41)" text-anchor="middle">3.0e+04</text>
	<text x="185.41" y="715.92" style="font-family:'Helvetica';font-size:45.05px;fill:#000000" transform="rotate(-90 185.41,715.92)" text-anchor="middle">Number</text>
	<line x1="296.50" y1="1221.95" x2="1904.39" y2="1221.95" style="stroke:#000000;stroke-width:4.32"/>
	<line x1="441.17" y1="1221.95" x2="441.17" y2="1251.89" style="stroke:#000000;stroke-width:4.32"/>
	<text x="441.17" y="1287.77" style="font-family:'Helvetica';font-size:29.95px;fill:#000000" text-anchor="middle">01jan2021</text>
	<line x1="867.36" y1="1221.95" x2="867.36" y2="1251.89" style="stroke:#000000;stroke-width:4.32"/>
	<text x="867.36" y="1287.77" style="font-family:'Helvetica';font-size:29.95px;fill:#000000" text-anchor="middle">01mar2021</text>
	<line x1="1307.91" y1="1221.95" x2="1307.91" y2="1251.89" style="stroke:#000000;stroke-width:4.32"/>
	<text x="1307.91" y="1287.77" style="font-family:'Helvetica';font-size:29.95px;fill:#000000" text-anchor="middle">01may2021</text>
	<line x1="1748.46" y1="1221.95" x2="1748.46" y2="1251.89" style="stroke:#000000;stroke-width:4.32"/>
	<text x="1748.46" y="1287.77" style="font-family:'Helvetica';font-size:29.95px;fill:#000000" text-anchor="middle">01jul2021</text>
	<text x="1100.38" y="1335.84" style="font-family:'Helvetica';font-size:45.05px;fill:#000000" text-anchor="middle">Date of probable COVID-19 clinical infection</text>
	<text x="1100.38" y="183.32" style="font-family:'Helvetica';font-size:45.05px;fill:#1E2D53" text-anchor="middle">N=19180</text>
	<rect x="1980.00" y="63.36" width="1916.52" height="1376.64" style="fill:#FFFFFF"/>
	<rect x="1982.16" y="65.52" width="1912.20" height="1372.32" style="fill:none;stroke:#FFFFFF;stroke-width:4.32"/>
	<rect x="2213.02" y="209.89" width="1607.88" height="1012.06" style="fill:#FFFFFF"/>
	<rect x="2215.18" y="212.05" width="1603.56" height="1007.74" style="fill:none;stroke:#FFFFFF;stroke-width:4.32"/>
	<line x1="2213.02" y1="1221.95" x2="3820.91" y2="1221.95" style="stroke:#EAF2F3;stroke-width:6.48"/>
	<line x1="2213.02" y1="900.43" x2="3820.91" y2="900.43" style="stroke:#EAF2F3;stroke-width:6.48"/>
	<line x1="2213.02" y1="578.92" x2="3820.91" y2="578.92" style="stroke:#EAF2F3;stroke-width:6.48"/>
	<rect x="2278.24" y="1209.57" width="35.39" height="12.38" style="fill:#CAC27E"/>
	<rect x="2281.48" y="1212.81" width="28.91" height="5.90" style="fill:none;stroke:#D7D29E;stroke-width:6.48"/>
	<rect x="2313.63" y="1210.44" width="35.27" height="11.51" style="fill:#CAC27E"/>
	<rect x="2316.87" y="1213.68" width="28.79" height="5.03" style="fill:none;stroke:#D7D29E;stroke-width:6.48"/>
	<rect x="2348.90" y="1211.92" width="35.39" height="10.02" style="fill:#CAC27E"/>
	<rect x="2352.14" y="1215.16" width="28.91" height="3.54" style="fill:none;stroke:#D7D29E;stroke-width:6.48"/>
	<rect x="2384.29" y="1209.57" width="35.39" height="12.38" style="fill:#CAC27E"/>
	<rect x="2387.53" y="1212.81" width="28.91" height="5.90" style="fill:none;stroke:#D7D29E;stroke-width:6.48"/>
	<rect x="2419.68" y="1212.79" width="35.39" height="9.16" style="fill:#CAC27E"/>
	<rect x="2422.92" y="1216.03" width="28.91" height="2.68" style="fill:none;stroke:#D7D29E;stroke-width:6.48"/>
	<rect x="2455.08" y="1210.07" width="35.27" height="11.88" style="fill:#CAC27E"/>
	<rect x="2458.32" y="1213.31" width="28.79" height="5.40" style="fill:none;stroke:#D7D29E;stroke-width:6.48"/>
	<rect x="2490.34" y="1213.53" width="35.39" height="8.42" style="fill:#CAC27E"/>
	<rect x="2493.58" y="1216.77" width="28.91" height="1.94" style="fill:none;stroke:#D7D29E;stroke-width:6.48"/>
	<rect x="2525.74" y="1211.30" width="35.39" height="10.64" style="fill:#CAC27E"/>
	<rect x="2528.98" y="1214.54" width="28.91" height="4.16" style="fill:none;stroke:#D7D29E;stroke-width:6.48"/>
	<rect x="2561.13" y="1210.56" width="35.27" height="11.39" style="fill:#CAC27E"/>
	<rect x="2564.37" y="1213.80" width="28.79" height="4.91" style="fill:none;stroke:#D7D29E;stroke-width:6.48"/>
	<rect x="2596.40" y="1213.78" width="35.39" height="8.17" style="fill:#CAC27E"/>
	<rect x="2599.64" y="1217.02" width="28.91" height="1.69" style="fill:none;stroke:#D7D29E;stroke-width:6.48"/>
	<rect x="2631.79" y="1211.30" width="35.39" height="10.64" style="fill:#CAC27E"/>
	<rect x="2635.03" y="1214.54" width="28.91" height="4.16" style="fill:none;stroke:#D7D29E;stroke-width:6.48"/>
	<rect x="2667.18" y="1214.15" width="35.39" height="7.80" style="fill:#CAC27E"/>
	<rect x="2670.42" y="1217.39" width="28.91" height="1.32" style="fill:none;stroke:#D7D29E;stroke-width:6.48"/>
	<rect x="2702.58" y="1211.80" width="35.27" height="10.15" style="fill:#CAC27E"/>
	<rect x="2705.82" y="1215.04" width="28.79" height="3.67" style="fill:none;stroke:#D7D29E;stroke-width:6.48"/>
	<rect x="2737.84" y="1214.52" width="35.39" height="7.43" style="fill:#CAC27E"/>
	<rect x="2741.08" y="1217.76" width="28.91" height="0.95" style="fill:none;stroke:#D7D29E;stroke-width:6.48"/>
	<rect x="2773.24" y="1213.65" width="35.39" height="8.29" style="fill:#CAC27E"/>
	<rect x="2776.48" y="1216.89" width="28.91" height="1.81" style="fill:none;stroke:#D7D29E;stroke-width:6.48"/>
	<rect x="2808.63" y="1213.16" width="35.27" height="8.79" style="fill:#CAC27E"/>
	<rect x="2811.87" y="1216.40" width="28.79" height="2.31" style="fill:none;stroke:#D7D29E;stroke-width:6.48"/>
	<rect x="2844.02" y="1214.77" width="35.27" height="7.18" style="fill:#CAC27E"/>
	<rect x="2847.26" y="1218.01" width="28.79" height="0.70" style="fill:none;stroke:#D7D29E;stroke-width:6.48"/>
	<rect x="2879.29" y="1213.16" width="35.39" height="8.79" style="fill:#CAC27E"/>
	<rect x="2882.53" y="1216.40" width="28.91" height="2.31" style="fill:none;stroke:#D7D29E;stroke-width:6.48"/>
	<rect x="2914.68" y="1214.89" width="35.39" height="7.05" style="fill:#CAC27E"/>
	<rect x="2917.92" y="1218.13" width="28.91" height="0.57" style="fill:none;stroke:#D7D29E;stroke-width:6.48"/>
	<rect x="2950.08" y="1213.53" width="35.27" height="8.42" style="fill:#CAC27E"/>
	<rect x="2953.32" y="1216.77" width="28.79" height="1.94" style="fill:none;stroke:#D7D29E;stroke-width:6.48"/>
	<rect x="2985.34" y="1215.39" width="35.39" height="6.56" style="fill:#CAC27E"/>
	<rect x="2988.58" y="1218.63" width="28.91" height="0.08" style="fill:none;stroke:#D7D29E;stroke-width:6.48"/>
	<rect x="3020.74" y="1214.64" width="35.39" height="7.30" style="fill:#CAC27E"/>
	<rect x="3023.98" y="1217.88" width="28.91" height="0.82" style="fill:none;stroke:#D7D29E;stroke-width:6.48"/>
	<rect x="3056.13" y="1215.39" width="35.27" height="6.56" style="fill:#CAC27E"/>
	<rect x="3059.37" y="1218.63" width="28.79" height="0.08" style="fill:none;stroke:#D7D29E;stroke-width:6.48"/>
	<rect x="3091.40" y="1214.27" width="35.39" height="7.67" style="fill:#CAC27E"/>
	<rect x="3094.64" y="1217.51" width="28.91" height="1.19" style="fill:none;stroke:#D7D29E;stroke-width:6.48"/>
	<rect x="3126.79" y="1214.15" width="35.39" height="7.80" style="fill:#CAC27E"/>
	<rect x="3130.03" y="1217.39" width="28.91" height="1.32" style="fill:none;stroke:#D7D29E;stroke-width:6.48"/>
	<rect x="3162.18" y="1215.88" width="35.39" height="6.06" style="fill:#CAC27E"/>
	<rect x="3165.42" y="1218.71" width="28.91" height="0.42" style="fill:none;stroke:#D7D29E;stroke-width:6.48"/>
	<rect x="3197.58" y="1214.64" width="35.27" height="7.30" style="fill:#CAC27E"/>
	<rect x="3200.82" y="1217.88" width="28.79" height="0.82" style="fill:none;stroke:#D7D29E;stroke-width:6.48"/>
	<rect x="3232.84" y="1216.50" width="35.39" height="5.45" style="fill:#CAC27E"/>
	<rect x="3236.08" y="1218.71" width="28.91" height="1.03" style="fill:none;stroke:#D7D29E;stroke-width:6.48"/>
	<rect x="3268.24" y="1215.02" width="35.39" height="6.93" style="fill:#CAC27E"/>
	<rect x="3271.48" y="1218.26" width="28.91" height="0.45" style="fill:none;stroke:#D7D29E;stroke-width:6.48"/>
	<rect x="3303.63" y="1217.12" width="35.39" height="4.83" style="fill:#CAC27E"/>
	<rect x="3306.87" y="1218.71" width="28.91" height="1.65" style="fill:none;stroke:#D7D29E;stroke-width:6.48"/>
	<rect x="3339.02" y="1216.75" width="35.27" height="5.20" style="fill:#CAC27E"/>
	<rect x="3342.26" y="1218.71" width="28.79" height="1.28" style="fill:none;stroke:#D7D29E;stroke-width:6.48"/>
	<rect x="3374.29" y="1216.01" width="35.39" height="5.94" style="fill:#CAC27E"/>
	<rect x="3377.53" y="1218.71" width="28.91" height="0.54" style="fill:none;stroke:#D7D29E;stroke-width:6.48"/>
	<rect x="3409.68" y="1217.61" width="35.39" height="4.33" style="fill:#CAC27E"/>
	<rect x="3412.92" y="1218.71" width="28.91" height="2.15" style="fill:none;stroke:#D7D29E;stroke-width:6.48"/>
	<rect x="3445.08" y="1217.12" width="35.27" height="4.83" style="fill:#CAC27E"/>
	<rect x="3448.32" y="1218.71" width="28.79" height="1.65" style="fill:none;stroke:#D7D29E;stroke-width:6.48"/>
	<rect x="3480.34" y="1217.86" width="35.39" height="4.08" style="fill:#CAC27E"/>
	<rect x="3483.58" y="1218.71" width="28.91" height="2.40" style="fill:none;stroke:#D7D29E;stroke-width:6.48"/>
	<rect x="3515.74" y="1217.49" width="35.39" height="4.46" style="fill:#CAC27E"/>
	<rect x="3518.98" y="1218.71" width="28.91" height="2.02" style="fill:none;stroke:#D7D29E;stroke-width:6.48"/>
	<rect x="3551.13" y="1217.99" width="35.39" height="3.96" style="fill:#CAC27E"/>
	<rect x="3554.37" y="1218.71" width="28.91" height="2.52" style="fill:none;stroke:#D7D29E;stroke-width:6.48"/>
	<rect x="3586.52" y="1217.12" width="35.27" height="4.83" style="fill:#CAC27E"/>
	<rect x="3589.76" y="1218.71" width="28.79" height="1.65" style="fill:none;stroke:#D7D29E;stroke-width:6.48"/>
	<rect x="3621.79" y="1217.37" width="35.39" height="4.58" style="fill:#CAC27E"/>
	<rect x="3625.03" y="1218.71" width="28.91" height="1.90" style="fill:none;stroke:#D7D29E;stroke-width:6.48"/>
	<line x1="2213.02" y1="1221.95" x2="2213.02" y2="209.89" style="stroke:#000000;stroke-width:4.32"/>
	<line x1="2213.02" y1="1221.95" x2="2183.07" y2="1221.95" style="stroke:#000000;stroke-width:4.32"/>
	<text x="2154.40" y="1221.95" style="font-family:'Helvetica';font-size:45.05px;fill:#000000" transform="rotate(-90 2154.40,1221.95)" text-anchor="middle">0</text>
	<line x1="2213.02" y1="900.43" x2="2183.07" y2="900.43" style="stroke:#000000;stroke-width:4.32"/>
	<text x="2154.40" y="900.43" style="font-family:'Helvetica';font-size:45.05px;fill:#000000" transform="rotate(-90 2154.40,900.43)" text-anchor="middle">1.0e+04</text>
	<line x1="2213.02" y1="578.92" x2="2183.07" y2="578.92" style="stroke:#000000;stroke-width:4.32"/>
	<text x="2154.40" y="578.92" style="font-family:'Helvetica';font-size:45.05px;fill:#000000" transform="rotate(-90 2154.40,578.92)" text-anchor="middle">2.0e+04</text>
	<line x1="2213.02" y1="257.41" x2="2183.07" y2="257.41" style="stroke:#000000;stroke-width:4.32"/>
	<text x="2154.40" y="257.41" style="font-family:'Helvetica';font-size:45.05px;fill:#000000" transform="rotate(-90 2154.40,257.41)" text-anchor="middle">3.0e+04</text>
	<text x="2101.93" y="715.92" style="font-family:'Helvetica';font-size:45.05px;fill:#000000" transform="rotate(-90 2101.93,715.92)" text-anchor="middle">Number</text>
	<line x1="2213.02" y1="1221.95" x2="3820.91" y2="1221.95" style="stroke:#000000;stroke-width:4.32"/>
	<line x1="2371.17" y1="1221.95" x2="2371.17" y2="1251.89" style="stroke:#000000;stroke-width:4.32"/>
	<text x="2371.17" y="1287.77" style="font-family:'Helvetica';font-size:29.95px;fill:#000000" text-anchor="middle">01jan2021</text>
	<line x1="2828.31" y1="1221.95" x2="2828.31" y2="1251.89" style="stroke:#000000;stroke-width:4.32"/>
	<text x="2828.31" y="1287.77" style="font-family:'Helvetica';font-size:29.95px;fill:#000000" text-anchor="middle">01mar2021</text>
	<line x1="3300.78" y1="1221.95" x2="3300.78" y2="1251.89" style="stroke:#000000;stroke-width:4.32"/>
	<text x="3300.78" y="1287.77" style="font-family:'Helvetica';font-size:29.95px;fill:#000000" text-anchor="middle">01may2021</text>
	<line x1="3773.39" y1="1221.95" x2="3773.39" y2="1251.89" style="stroke:#000000;stroke-width:4.32"/>
	<text x="3773.39" y="1287.77" style="font-family:'Helvetica';font-size:29.95px;fill:#000000" text-anchor="middle">01jul2021</text>
	<text x="3017.03" y="1335.84" style="font-family:'Helvetica';font-size:45.05px;fill:#000000" text-anchor="middle">Date of admission to hospital for COVID-19</text>
	<text x="3017.03" y="183.32" style="font-family:'Helvetica';font-size:45.05px;fill:#1E2D53" text-anchor="middle">N=9255</text>
	<rect x="63.36" y="1440.00" width="1916.64" height="1376.64" style="fill:#FFFFFF"/>
	<rect x="65.52" y="1442.16" width="1912.32" height="1372.32" style="fill:none;stroke:#FFFFFF;stroke-width:4.32"/>
	<rect x="296.50" y="1586.52" width="1607.88" height="1012.06" style="fill:#FFFFFF"/>
	<rect x="298.66" y="1588.68" width="1603.56" height="1007.74" style="fill:none;stroke:#FFFFFF;stroke-width:4.32"/>
	<line x1="296.50" y1="2598.58" x2="1904.39" y2="2598.58" style="stroke:#EAF2F3;stroke-width:6.48"/>
	<line x1="296.50" y1="2277.07" x2="1904.39" y2="2277.07" style="stroke:#EAF2F3;stroke-width:6.48"/>
	<line x1="296.50" y1="1955.56" x2="1904.39" y2="1955.56" style="stroke:#EAF2F3;stroke-width:6.48"/>
	<rect x="361.72" y="2586.08" width="35.64" height="12.50" style="fill:#CAC27E"/>
	<rect x="364.96" y="2589.32" width="29.16" height="6.02" style="fill:none;stroke:#D7D29E;stroke-width:6.48"/>
	<rect x="397.36" y="2586.46" width="35.64" height="12.13" style="fill:#CAC27E"/>
	<rect x="400.60" y="2589.70" width="29.16" height="5.65" style="fill:none;stroke:#D7D29E;stroke-width:6.48"/>
	<rect x="433.00" y="2585.09" width="35.52" height="13.49" style="fill:#CAC27E"/>
	<rect x="436.24" y="2588.33" width="29.04" height="7.01" style="fill:none;stroke:#D7D29E;stroke-width:6.48"/>
	<rect x="468.52" y="2587.57" width="35.64" height="11.01" style="fill:#CAC27E"/>
	<rect x="471.76" y="2590.81" width="29.16" height="4.53" style="fill:none;stroke:#D7D29E;stroke-width:6.48"/>
	<rect x="504.16" y="2586.08" width="35.64" height="12.50" style="fill:#CAC27E"/>
	<rect x="507.40" y="2589.32" width="29.16" height="6.02" style="fill:none;stroke:#D7D29E;stroke-width:6.48"/>
	<rect x="539.80" y="2586.08" width="35.52" height="12.50" style="fill:#CAC27E"/>
	<rect x="543.04" y="2589.32" width="29.04" height="6.02" style="fill:none;stroke:#D7D29E;stroke-width:6.48"/>
	<rect x="575.31" y="2586.33" width="35.64" height="12.25" style="fill:#CAC27E"/>
	<rect x="578.55" y="2589.57" width="29.16" height="5.77" style="fill:none;stroke:#D7D29E;stroke-width:6.48"/>
	<rect x="610.95" y="2587.45" width="35.64" height="11.14" style="fill:#CAC27E"/>
	<rect x="614.19" y="2590.69" width="29.16" height="4.66" style="fill:none;stroke:#D7D29E;stroke-width:6.48"/>
	<rect x="646.59" y="2586.95" width="35.52" height="11.63" style="fill:#CAC27E"/>
	<rect x="649.83" y="2590.19" width="29.04" height="5.15" style="fill:none;stroke:#D7D29E;stroke-width:6.48"/>
	<rect x="682.11" y="2586.46" width="35.64" height="12.13" style="fill:#CAC27E"/>
	<rect x="685.35" y="2589.70" width="29.16" height="5.65" style="fill:none;stroke:#D7D29E;stroke-width:6.48"/>
	<rect x="717.75" y="2584.85" width="35.52" height="13.74" style="fill:#CAC27E"/>
	<rect x="720.99" y="2588.09" width="29.04" height="7.26" style="fill:none;stroke:#D7D29E;stroke-width:6.48"/>
	<rect x="753.27" y="2587.07" width="35.64" height="11.51" style="fill:#CAC27E"/>
	<rect x="756.51" y="2590.31" width="29.16" height="5.03" style="fill:none;stroke:#D7D29E;stroke-width:6.48"/>
	<rect x="788.91" y="2586.46" width="35.64" height="12.13" style="fill:#CAC27E"/>
	<rect x="792.15" y="2589.70" width="29.16" height="5.65" style="fill:none;stroke:#D7D29E;stroke-width:6.48"/>
	<rect x="824.55" y="2589.18" width="35.52" height="9.41" style="fill:#CAC27E"/>
	<rect x="827.79" y="2592.42" width="29.04" height="2.93" style="fill:none;stroke:#D7D29E;stroke-width:6.48"/>
	<rect x="860.06" y="2586.21" width="35.64" height="12.38" style="fill:#CAC27E"/>
	<rect x="863.30" y="2589.45" width="29.16" height="5.90" style="fill:none;stroke:#D7D29E;stroke-width:6.48"/>
	<rect x="895.70" y="2584.97" width="35.64" height="13.61" style="fill:#CAC27E"/>
	<rect x="898.94" y="2588.21" width="29.16" height="7.13" style="fill:none;stroke:#D7D29E;stroke-width:6.48"/>
	<rect x="931.34" y="2586.21" width="35.52" height="12.38" style="fill:#CAC27E"/>
	<rect x="934.58" y="2589.45" width="29.04" height="5.90" style="fill:none;stroke:#D7D29E;stroke-width:6.48"/>
	<rect x="966.86" y="2586.95" width="35.64" height="11.63" style="fill:#CAC27E"/>
	<rect x="970.10" y="2590.19" width="29.16" height="5.15" style="fill:none;stroke:#D7D29E;stroke-width:6.48"/>
	<rect x="1002.50" y="2586.08" width="35.64" height="12.50" style="fill:#CAC27E"/>
	<rect x="1005.74" y="2589.32" width="29.16" height="6.02" style="fill:none;stroke:#D7D29E;stroke-width:6.48"/>
	<rect x="1038.14" y="2586.33" width="35.52" height="12.25" style="fill:#CAC27E"/>
	<rect x="1041.38" y="2589.57" width="29.04" height="5.77" style="fill:none;stroke:#D7D29E;stroke-width:6.48"/>
	<rect x="1073.65" y="2585.84" width="35.64" height="12.75" style="fill:#CAC27E"/>
	<rect x="1076.89" y="2589.08" width="29.16" height="6.27" style="fill:none;stroke:#D7D29E;stroke-width:6.48"/>
	<rect x="1109.30" y="2585.96" width="35.64" height="12.62" style="fill:#CAC27E"/>
	<rect x="1112.53" y="2589.20" width="29.16" height="6.14" style="fill:none;stroke:#D7D29E;stroke-width:6.48"/>
	<rect x="1144.93" y="2585.34" width="35.52" height="13.24" style="fill:#CAC27E"/>
	<rect x="1148.17" y="2588.58" width="29.04" height="6.76" style="fill:none;stroke:#D7D29E;stroke-width:6.48"/>
	<rect x="1180.45" y="2585.34" width="35.64" height="13.24" style="fill:#CAC27E"/>
	<rect x="1183.69" y="2588.58" width="29.16" height="6.76" style="fill:none;stroke:#D7D29E;stroke-width:6.48"/>
	<rect x="1216.09" y="2585.84" width="35.64" height="12.75" style="fill:#CAC27E"/>
	<rect x="1219.33" y="2589.08" width="29.16" height="6.27" style="fill:none;stroke:#D7D29E;stroke-width:6.48"/>
	<rect x="1251.73" y="2586.08" width="35.52" height="12.50" style="fill:#CAC27E"/>
	<rect x="1254.97" y="2589.32" width="29.04" height="6.02" style="fill:none;stroke:#D7D29E;stroke-width:6.48"/>
	<rect x="1287.25" y="2586.33" width="35.64" height="12.25" style="fill:#CAC27E"/>
	<rect x="1290.49" y="2589.57" width="29.16" height="5.77" style="fill:none;stroke:#D7D29E;stroke-width:6.48"/>
	<rect x="1322.89" y="2588.93" width="35.64" height="9.65" style="fill:#CAC27E"/>
	<rect x="1326.13" y="2592.17" width="29.16" height="3.17" style="fill:none;stroke:#D7D29E;stroke-width:6.48"/>
	<rect x="1358.53" y="2586.33" width="35.52" height="12.25" style="fill:#CAC27E"/>
	<rect x="1361.77" y="2589.57" width="29.04" height="5.77" style="fill:none;stroke:#D7D29E;stroke-width:6.48"/>
	<rect x="1394.04" y="2585.22" width="35.64" height="13.37" style="fill:#CAC27E"/>
	<rect x="1397.28" y="2588.46" width="29.16" height="6.89" style="fill:none;stroke:#D7D29E;stroke-width:6.48"/>
	<rect x="1429.68" y="2585.47" width="35.64" height="13.12" style="fill:#CAC27E"/>
	<rect x="1432.92" y="2588.71" width="29.16" height="6.64" style="fill:none;stroke:#D7D29E;stroke-width:6.48"/>
	<rect x="1465.20" y="2586.21" width="35.64" height="12.38" style="fill:#CAC27E"/>
	<rect x="1468.44" y="2589.45" width="29.16" height="5.90" style="fill:none;stroke:#D7D29E;stroke-width:6.48"/>
	<rect x="1500.84" y="2586.83" width="35.64" height="11.76" style="fill:#CAC27E"/>
	<rect x="1504.08" y="2590.07" width="29.16" height="5.28" style="fill:none;stroke:#D7D29E;stroke-width:6.48"/>
	<rect x="1536.48" y="2585.47" width="35.52" height="13.12" style="fill:#CAC27E"/>
	<rect x="1539.72" y="2588.71" width="29.04" height="6.64" style="fill:none;stroke:#D7D29E;stroke-width:6.48"/>
	<rect x="1572.00" y="2586.08" width="35.64" height="12.50" style="fill:#CAC27E"/>
	<rect x="1575.24" y="2589.32" width="29.16" height="6.02" style="fill:none;stroke:#D7D29E;stroke-width:6.48"/>
	<rect x="1607.64" y="2585.96" width="35.64" height="12.62" style="fill:#CAC27E"/>
	<rect x="1610.88" y="2589.20" width="29.16" height="6.14" style="fill:none;stroke:#D7D29E;stroke-width:6.48"/>
	<rect x="1643.28" y="2585.84" width="35.52" height="12.75" style="fill:#CAC27E"/>
	<rect x="1646.52" y="2589.08" width="29.04" height="6.27" style="fill:none;stroke:#D7D29E;stroke-width:6.48"/>
	<rect x="1678.79" y="2588.31" width="35.64" height="10.27" style="fill:#CAC27E"/>
	<rect x="1682.03" y="2591.55" width="29.16" height="3.79" style="fill:none;stroke:#D7D29E;stroke-width:6.48"/>
	<rect x="1714.43" y="2585.84" width="35.64" height="12.75" style="fill:#CAC27E"/>
	<rect x="1717.67" y="2589.08" width="29.16" height="6.27" style="fill:none;stroke:#D7D29E;stroke-width:6.48"/>
	<rect x="1750.07" y="2586.58" width="35.52" height="12.00" style="fill:#CAC27E"/>
	<rect x="1753.31" y="2589.82" width="29.04" height="5.52" style="fill:none;stroke:#D7D29E;stroke-width:6.48"/>
	<rect x="1785.59" y="2585.47" width="35.64" height="13.12" style="fill:#CAC27E"/>
	<rect x="1788.83" y="2588.71" width="29.16" height="6.64" style="fill:none;stroke:#D7D29E;stroke-width:6.48"/>
	<rect x="1821.23" y="2586.46" width="35.64" height="12.13" style="fill:#CAC27E"/>
	<rect x="1824.47" y="2589.70" width="29.16" height="5.65" style="fill:none;stroke:#D7D29E;stroke-width:6.48"/>
	<line x1="296.50" y1="2598.58" x2="296.50" y2="1586.52" style="stroke:#000000;stroke-width:4.32"/>
	<line x1="296.50" y1="2598.58" x2="266.43" y2="2598.58" style="stroke:#000000;stroke-width:4.32"/>
	<text x="237.88" y="2598.58" style="font-family:'Helvetica';font-size:45.05px;fill:#000000" transform="rotate(-90 237.88,2598.58)" text-anchor="middle">0</text>
	<line x1="296.50" y1="2277.07" x2="266.43" y2="2277.07" style="stroke:#000000;stroke-width:4.32"/>
	<text x="237.88" y="2277.07" style="font-family:'Helvetica';font-size:45.05px;fill:#000000" transform="rotate(-90 237.88,2277.07)" text-anchor="middle">1.0e+04</text>
	<line x1="296.50" y1="1955.56" x2="266.43" y2="1955.56" style="stroke:#000000;stroke-width:4.32"/>
	<text x="237.88" y="1955.56" style="font-family:'Helvetica';font-size:45.05px;fill:#000000" transform="rotate(-90 237.88,1955.56)" text-anchor="middle">2.0e+04</text>
	<line x1="296.50" y1="1634.05" x2="266.43" y2="1634.05" style="stroke:#000000;stroke-width:4.32"/>
	<text x="237.88" y="1634.05" style="font-family:'Helvetica';font-size:45.05px;fill:#000000" transform="rotate(-90 237.88,1634.05)" text-anchor="middle">3.0e+04</text>
	<text x="185.41" y="2092.55" style="font-family:'Helvetica';font-size:45.05px;fill:#000000" transform="rotate(-90 185.41,2092.55)" text-anchor="middle">Number</text>
	<line x1="296.50" y1="2598.58" x2="1904.39" y2="2598.58" style="stroke:#000000;stroke-width:4.32"/>
	<line x1="441.17" y1="2598.58" x2="441.17" y2="2628.53" style="stroke:#000000;stroke-width:4.32"/>
	<text x="441.17" y="2664.41" style="font-family:'Helvetica';font-size:29.95px;fill:#000000" text-anchor="middle">01jan2021</text>
	<line x1="867.36" y1="2598.58" x2="867.36" y2="2628.53" style="stroke:#000000;stroke-width:4.32"/>
	<text x="867.36" y="2664.41" style="font-family:'Helvetica';font-size:29.95px;fill:#000000" text-anchor="middle">01mar2021</text>
	<line x1="1307.91" y1="2598.58" x2="1307.91" y2="2628.53" style="stroke:#000000;stroke-width:4.32"/>
	<text x="1307.91" y="2664.41" style="font-family:'Helvetica';font-size:29.95px;fill:#000000" text-anchor="middle">01may2021</text>
	<line x1="1748.46" y1="2598.58" x2="1748.46" y2="2628.53" style="stroke:#000000;stroke-width:4.32"/>
	<text x="1748.46" y="2664.41" style="font-family:'Helvetica';font-size:29.95px;fill:#000000" text-anchor="middle">01jul2021</text>
	<text x="1100.38" y="2712.47" style="font-family:'Helvetica';font-size:45.05px;fill:#000000" text-anchor="middle">Date of admission to ICU for COVID-19</text>
	<text x="1100.38" y="1559.95" style="font-family:'Helvetica';font-size:45.05px;fill:#1E2D53" text-anchor="middle">N=16008</text>
	<rect x="1980.00" y="1440.00" width="1916.52" height="1376.64" style="fill:#FFFFFF"/>
	<rect x="1982.16" y="1442.16" width="1912.20" height="1372.32" style="fill:none;stroke:#FFFFFF;stroke-width:4.32"/>
	<rect x="2213.02" y="1586.52" width="1607.88" height="1012.06" style="fill:#FFFFFF"/>
	<rect x="2215.18" y="1588.68" width="1603.56" height="1007.74" style="fill:none;stroke:#FFFFFF;stroke-width:4.32"/>
	<line x1="2213.02" y1="2598.58" x2="3820.91" y2="2598.58" style="stroke:#EAF2F3;stroke-width:6.48"/>
	<line x1="2213.02" y1="2277.07" x2="3820.91" y2="2277.07" style="stroke:#EAF2F3;stroke-width:6.48"/>
	<line x1="2213.02" y1="1955.56" x2="3820.91" y2="1955.56" style="stroke:#EAF2F3;stroke-width:6.48"/>
	<rect x="2279.72" y="2590.29" width="38.24" height="8.29" style="fill:#CAC27E"/>
	<rect x="2282.96" y="2593.53" width="31.76" height="1.81" style="fill:none;stroke:#D7D29E;stroke-width:6.48"/>
	<rect x="2317.96" y="2592.02" width="38.36" height="6.56" style="fill:#CAC27E"/>
	<rect x="2321.20" y="2595.26" width="31.88" height="0.08" style="fill:none;stroke:#D7D29E;stroke-width:6.48"/>
	<rect x="2356.32" y="2590.79" width="38.24" height="7.80" style="fill:#CAC27E"/>
	<rect x="2359.56" y="2594.03" width="31.76" height="1.32" style="fill:none;stroke:#D7D29E;stroke-width:6.48"/>
	<rect x="2394.56" y="2588.56" width="38.36" height="10.02" style="fill:#CAC27E"/>
	<rect x="2397.80" y="2591.80" width="31.88" height="3.54" style="fill:none;stroke:#D7D29E;stroke-width:6.48"/>
	<rect x="2432.93" y="2591.16" width="38.24" height="7.43" style="fill:#CAC27E"/>
	<rect x="2436.16" y="2594.40" width="31.76" height="0.95" style="fill:none;stroke:#D7D29E;stroke-width:6.48"/>
	<rect x="2471.16" y="2591.03" width="38.36" height="7.55" style="fill:#CAC27E"/>
	<rect x="2474.40" y="2594.27" width="31.88" height="1.07" style="fill:none;stroke:#D7D29E;stroke-width:6.48"/>
	<rect x="2509.53" y="2590.42" width="38.24" height="8.17" style="fill:#CAC27E"/>
	<rect x="2512.77" y="2593.66" width="31.76" height="1.69" style="fill:none;stroke:#D7D29E;stroke-width:6.48"/>
	<rect x="2547.76" y="2590.29" width="38.36" height="8.29" style="fill:#CAC27E"/>
	<rect x="2551.00" y="2593.53" width="31.88" height="1.81" style="fill:none;stroke:#D7D29E;stroke-width:6.48"/>
	<rect x="2586.13" y="2590.79" width="38.24" height="7.80" style="fill:#CAC27E"/>
	<rect x="2589.37" y="2594.03" width="31.76" height="1.32" style="fill:none;stroke:#D7D29E;stroke-width:6.48"/>
	<rect x="2624.37" y="2589.80" width="38.36" height="8.79" style="fill:#CAC27E"/>
	<rect x="2627.61" y="2593.04" width="31.88" height="2.31" style="fill:none;stroke:#D7D29E;stroke-width:6.48"/>
	<rect x="2662.73" y="2590.66" width="38.24" height="7.92" style="fill:#CAC27E"/>
	<rect x="2665.97" y="2593.90" width="31.76" height="1.44" style="fill:none;stroke:#D7D29E;stroke-width:6.48"/>
	<rect x="2700.97" y="2591.28" width="38.36" height="7.30" style="fill:#CAC27E"/>
	<rect x="2704.21" y="2594.52" width="31.88" height="0.82" style="fill:none;stroke:#D7D29E;stroke-width:6.48"/>
	<rect x="2739.33" y="2590.42" width="38.24" height="8.17" style="fill:#CAC27E"/>
	<rect x="2742.57" y="2593.66" width="31.76" height="1.69" style="fill:none;stroke:#D7D29E;stroke-width:6.48"/>
	<rect x="2777.57" y="2589.92" width="38.36" height="8.66" style="fill:#CAC27E"/>
	<rect x="2780.81" y="2593.16" width="31.88" height="2.18" style="fill:none;stroke:#D7D29E;stroke-width:6.48"/>
	<rect x="2815.93" y="2590.91" width="38.24" height="7.67" style="fill:#CAC27E"/>
	<rect x="2819.17" y="2594.15" width="31.76" height="1.19" style="fill:none;stroke:#D7D29E;stroke-width:6.48"/>
	<rect x="2854.17" y="2591.03" width="38.36" height="7.55" style="fill:#CAC27E"/>
	<rect x="2857.41" y="2594.27" width="31.88" height="1.07" style="fill:none;stroke:#D7D29E;stroke-width:6.48"/>
	<rect x="2892.53" y="2589.92" width="38.24" height="8.66" style="fill:#CAC27E"/>
	<rect x="2895.77" y="2593.16" width="31.76" height="2.18" style="fill:none;stroke:#D7D29E;stroke-width:6.48"/>
	<rect x="2930.77" y="2590.54" width="38.36" height="8.04" style="fill:#CAC27E"/>
	<rect x="2934.01" y="2593.78" width="31.88" height="1.56" style="fill:none;stroke:#D7D29E;stroke-width:6.48"/>
	<rect x="2969.13" y="2591.65" width="38.24" height="6.93" style="fill:#CAC27E"/>
	<rect x="2972.37" y="2594.89" width="31.76" height="0.45" style="fill:none;stroke:#D7D29E;stroke-width:6.48"/>
	<rect x="3007.37" y="2589.55" width="38.36" height="9.03" style="fill:#CAC27E"/>
	<rect x="3010.61" y="2592.79" width="31.88" height="2.55" style="fill:none;stroke:#D7D29E;stroke-width:6.48"/>
	<rect x="3045.74" y="2591.16" width="38.24" height="7.43" style="fill:#CAC27E"/>
	<rect x="3048.97" y="2594.40" width="31.76" height="0.95" style="fill:none;stroke:#D7D29E;stroke-width:6.48"/>
	<rect x="3083.97" y="2590.42" width="38.36" height="8.17" style="fill:#CAC27E"/>
	<rect x="3087.21" y="2593.66" width="31.88" height="1.69" style="fill:none;stroke:#D7D29E;stroke-width:6.48"/>
	<rect x="3122.34" y="2588.81" width="38.24" height="9.78" style="fill:#CAC27E"/>
	<rect x="3125.58" y="2592.05" width="31.76" height="3.30" style="fill:none;stroke:#D7D29E;stroke-width:6.48"/>
	<rect x="3160.57" y="2590.91" width="38.36" height="7.67" style="fill:#CAC27E"/>
	<rect x="3163.81" y="2594.15" width="31.88" height="1.19" style="fill:none;stroke:#D7D29E;stroke-width:6.48"/>
	<rect x="3198.94" y="2590.91" width="38.24" height="7.67" style="fill:#CAC27E"/>
	<rect x="3202.18" y="2594.15" width="31.76" height="1.19" style="fill:none;stroke:#D7D29E;stroke-width:6.48"/>
	<rect x="3237.18" y="2591.65" width="38.36" height="6.93" style="fill:#CAC27E"/>
	<rect x="3240.42" y="2594.89" width="31.88" height="0.45" style="fill:none;stroke:#D7D29E;stroke-width:6.48"/>
	<rect x="3275.54" y="2588.31" width="38.24" height="10.27" style="fill:#CAC27E"/>
	<rect x="3278.78" y="2591.55" width="31.76" height="3.79" style="fill:none;stroke:#D7D29E;stroke-width:6.48"/>
	<rect x="3313.78" y="2591.03" width="38.36" height="7.55" style="fill:#CAC27E"/>
	<rect x="3317.02" y="2594.27" width="31.88" height="1.07" style="fill:none;stroke:#D7D29E;stroke-width:6.48"/>
	<rect x="3352.14" y="2591.03" width="38.24" height="7.55" style="fill:#CAC27E"/>
	<rect x="3355.38" y="2594.27" width="31.76" height="1.07" style="fill:none;stroke:#D7D29E;stroke-width:6.48"/>
	<rect x="3390.38" y="2590.42" width="38.36" height="8.17" style="fill:#CAC27E"/>
	<rect x="3393.62" y="2593.66" width="31.88" height="1.69" style="fill:none;stroke:#D7D29E;stroke-width:6.48"/>
	<rect x="3428.74" y="2592.15" width="38.24" height="6.44" style="fill:#CAC27E"/>
	<rect x="3431.98" y="2595.34" width="31.76" height="0.04" style="fill:none;stroke:#D7D29E;stroke-width:6.48"/>
	<rect x="3466.98" y="2590.91" width="38.36" height="7.67" style="fill:#CAC27E"/>
	<rect x="3470.22" y="2594.15" width="31.88" height="1.19" style="fill:none;stroke:#D7D29E;stroke-width:6.48"/>
	<rect x="3505.34" y="2589.80" width="38.24" height="8.79" style="fill:#CAC27E"/>
	<rect x="3508.58" y="2593.04" width="31.76" height="2.31" style="fill:none;stroke:#D7D29E;stroke-width:6.48"/>
	<rect x="3543.58" y="2591.90" width="38.36" height="6.68" style="fill:#CAC27E"/>
	<rect x="3546.82" y="2595.14" width="31.88" height="0.20" style="fill:none;stroke:#D7D29E;stroke-width:6.48"/>
	<rect x="3581.94" y="2591.03" width="38.24" height="7.55" style="fill:#CAC27E"/>
	<rect x="3585.18" y="2594.27" width="31.76" height="1.07" style="fill:none;stroke:#D7D29E;stroke-width:6.48"/>
	<rect x="3620.18" y="2589.67" width="38.36" height="8.91" style="fill:#CAC27E"/>
	<rect x="3623.42" y="2592.91" width="31.88" height="2.43" style="fill:none;stroke:#D7D29E;stroke-width:6.48"/>
	<rect x="3658.55" y="2591.41" width="38.24" height="7.18" style="fill:#CAC27E"/>
	<rect x="3661.78" y="2594.65" width="31.76" height="0.70" style="fill:none;stroke:#D7D29E;stroke-width:6.48"/>
	<rect x="3696.78" y="2591.16" width="38.36" height="7.43" style="fill:#CAC27E"/>
	<rect x="3700.02" y="2594.40" width="31.88" height="0.95" style="fill:none;stroke:#D7D29E;stroke-width:6.48"/>
	<rect x="3735.15" y="2589.05" width="38.24" height="9.53" style="fill:#CAC27E"/>
	<rect x="3738.39" y="2592.29" width="31.76" height="3.05" style="fill:none;stroke:#D7D29E;stroke-width:6.48"/>
	<line x1="2213.02" y1="2598.58" x2="2213.02" y2="1586.52" style="stroke:#000000;stroke-width:4.32"/>
	<line x1="2213.02" y1="2598.58" x2="2183.07" y2="2598.58" style="stroke:#000000;stroke-width:4.32"/>
	<text x="2154.40" y="2598.58" style="font-family:'Helvetica';font-size:45.05px;fill:#000000" transform="rotate(-90 2154.40,2598.58)" text-anchor="middle">0</text>
	<line x1="2213.02" y1="2277.07" x2="2183.07" y2="2277.07" style="stroke:#000000;stroke-width:4.32"/>
	<text x="2154.40" y="2277.07" style="font-family:'Helvetica';font-size:45.05px;fill:#000000" transform="rotate(-90 2154.40,2277.07)" text-anchor="middle">1.0e+04</text>
	<line x1="2213.02" y1="1955.56" x2="2183.07" y2="1955.56" style="stroke:#000000;stroke-width:4.32"/>
	<text x="2154.40" y="1955.56" style="font-family:'Helvetica';font-size:45.05px;fill:#000000" transform="rotate(-90 2154.40,1955.56)" text-anchor="middle">2.0e+04</text>
	<line x1="2213.02" y1="1634.05" x2="2183.07" y2="1634.05" style="stroke:#000000;stroke-width:4.32"/>
	<text x="2154.40" y="1634.05" style="font-family:'Helvetica';font-size:45.05px;fill:#000000" transform="rotate(-90 2154.40,1634.05)" text-anchor="middle">3.0e+04</text>
	<text x="2101.93" y="2092.55" style="font-family:'Helvetica';font-size:45.05px;fill:#000000" transform="rotate(-90 2101.93,2092.55)" text-anchor="middle">Number</text>
	<line x1="2213.02" y1="2598.58" x2="3820.91" y2="2598.58" style="stroke:#000000;stroke-width:4.32"/>
	<line x1="2359.05" y1="2598.58" x2="2359.05" y2="2628.53" style="stroke:#000000;stroke-width:4.32"/>
	<text x="2359.05" y="2664.41" style="font-family:'Helvetica';font-size:29.95px;fill:#000000" text-anchor="middle">01jan2021</text>
	<line x1="2784.87" y1="2598.58" x2="2784.87" y2="2628.53" style="stroke:#000000;stroke-width:4.32"/>
	<text x="2784.87" y="2664.41" style="font-family:'Helvetica';font-size:29.95px;fill:#000000" text-anchor="middle">01mar2021</text>
	<line x1="3225.05" y1="2598.58" x2="3225.05" y2="2628.53" style="stroke:#000000;stroke-width:4.32"/>
	<text x="3225.05" y="2664.41" style="font-family:'Helvetica';font-size:29.95px;fill:#000000" text-anchor="middle">01may2021</text>
	<line x1="3665.10" y1="2598.58" x2="3665.10" y2="2628.53" style="stroke:#000000;stroke-width:4.32"/>
	<text x="3665.10" y="2664.41" style="font-family:'Helvetica';font-size:29.95px;fill:#000000" text-anchor="middle">01jul2021</text>
	<text x="3017.03" y="2712.47" style="font-family:'Helvetica';font-size:45.05px;fill:#000000" text-anchor="middle">Date of ONS COVID-19 Death</text>
	<text x="3017.03" y="1559.95" style="font-family:'Helvetica';font-size:45.05px;fill:#1E2D53" text-anchor="middle">N=9660</text>
</svg>
